<svg aria-hidden="true" style="width:0;height:0;position:absolute;overflow:hidden" xmlns="http://www.w3.org/2000/svg"><defs><symbol id="icon-loop" viewBox="0 0 30 32"><path fill="#fd5103" style="fill:var(--color1,#fd5103)" d="M12.8 26.4c2.832 0 5.6-.96 7.84-2.704l7.04 7.04 2.24-2.272-7.024-7.04a12.716 12.716 0 0 0 2.704-7.868c0-7.069-5.731-12.8-12.8-12.8S0 6.487 0 13.556v.047-.002.016c0 7.069 5.731 12.8 12.8 12.8zm0-22.4c5.303.005 9.6 4.304 9.6 9.608 0 5.306-4.302 9.608-9.608 9.608h-.008c-5.303-.005-9.6-4.304-9.6-9.608C3.184 8.302 7.486 4 12.792 4h.008z"/></symbol><symbol id="icon-toggle" viewBox="0 0 61 32"><path fill="#fff" style="fill:var(--color2,#fff)" d="M15.238 1.219h30.476c8.163 0 14.781 6.618 14.781 14.781s-6.618 14.781-14.781 14.781H15.238C7.075 30.781.457 24.163.457 16S7.075 1.219 15.238 1.219z"/><path fill="#fd5103" style="fill:var(--color1,#fd5103)" d="M25.905 16c0 6.733-5.458 12.19-12.19 12.19S1.525 22.732 1.525 16c0-6.733 5.458-12.19 12.19-12.19S25.905 9.268 25.905 16z"/><path fill="none" stroke="#fd5103" style="stroke:var(--color1,#fd5103)" stroke-width=".914" d="M15.238 1.219h30.476c8.163 0 14.781 6.618 14.781 14.781s-6.618 14.781-14.781 14.781H15.238C7.075 30.781.457 24.163.457 16S7.075 1.219 15.238 1.219z"/></symbol><symbol id="icon-like" viewBox="0 0 35 32"><path fill="none" stroke="#fd5103" style="stroke:var(--color1,#fd5103)" stroke-width="3.368" d="M16.253 28.446C11.655 24.337 8 21.052 5.44 17.987c-2.526-3.032-3.756-5.659-3.756-8.404 0-4.413 3.503-7.899 8.051-7.899 2.56 0 5.053 1.179 6.669 3.065l1.28 1.465 1.28-1.465a8.944 8.944 0 0 1 6.665-3.065h.004c4.564 0 8.051 3.486 8.051 7.916 0 2.728-1.229 5.339-3.756 8.387-2.543 3.065-6.215 6.366-10.796 10.476l-1.448 1.28-1.432-1.297z"/></symbol><symbol id="icon-cross" viewBox="0 0 32 32"><path d="M18.222 16 31.324 2.898A1.582 1.582 0 0 0 29.099.679l.003-.002L16 13.779 2.898.659A1.6 1.6 0 1 0 .654 2.896l.004.003 13.12 13.102L.658 29.103a1.581 1.581 0 0 0 .98 2.824c.502 0 .95-.234 1.24-.599l.002-.003L16 18.223l13.102 13.102a1.582 1.582 0 0 0 2.219-2.225l.003.003-13.102-13.102z"/></symbol><symbol id="icon-restaurant" viewBox="0 0 29 32"><path fill="#fd5103" style="fill:var(--color1,#fd5103)" d="M26.995 8.196c-2.503-3.691-8.789-9.54-18.355-5.771C-.924 6.193.167 12.726.594 15.253s.993 5.808 4.741 8.258c3.749 2.451 7.944 2.52 12.431 2.307s9.645-2.803 10.633-6.306c.989-3.503 1.096-7.625-1.405-11.316z"/><path fill="#f2f0eb" style="fill:var(--color3,#f2f0eb)" d="M12.904 8.342s-.974.619-.931.729c.045.11.288.486.288.486s.696 1.343 1.595 1.592c1.196.332 1.661-.331 2.038-1.016s.442-5.327.309-5.394c-.132-.067-.841.309-1.063 1.238s-.398 2.763-.531 2.873c-.133.111-1.263-.221-1.263-.221l-.442-.287z"/><path fill="#f5aa8a" style="fill:var(--color4,#f5aa8a)" d="M10.268 8.01s-.739-.118-.739.118.236.324.384.324c.147 0 .147.147.413.147s.502.088.886.059c.384-.029.797.265.797.265s.147.332.672-.008c.143-.093.265-.221.244-.376-.023-.155-.191-.681-.326-.796-.206-.177-2.333.265-2.333.265z"/><path fill="#93b3c5" style="fill:var(--color5,#93b3c5)" d="M10.998 8.37c1.581 0 2.861-.261 2.861-.584s-1.281-.583-2.861-.583c-1.58 0-2.861.261-2.861.583s1.281.584 2.861.584z"/><path fill="#a1c4da" style="fill:var(--color6,#a1c4da)" d="M12.903 5.652c-.854-.678-1.905-.589-1.905-.589s-1.051-.088-1.905.589c-.854.677-.788 2.076-.788 2.076s.54.438 2.693.438 2.693-.438 2.693-.438.066-1.398-.788-2.076z"/><path fill="#b3d9ed" style="fill:var(--color7,#b3d9ed)" d="M12.264 5.502a2.661 2.661 0 0 0-1.05-.44l-.017-.003h-.13c.261.125.484.28.679.465l-.001-.001c.876.83.808 2.543.808 2.543l-.001.001c.45-.066.738-.153.911-.223-.068-.423-.347-1.747-1.2-2.342z"/><path fill="#b3d9ed" style="fill:var(--color7,#b3d9ed)" d="M11.072 5.059c-.047 0-.074.003-.074.003l-.025-.002c.072.101.145.216.213.349.426.829.404 2.232.38 2.745.143-.006.278-.013.403-.024-.016-.577-.104-1.942-.582-2.682a2.25 2.25 0 0 0-.315-.389z"/><path fill="#93b3c5" style="fill:var(--color5,#93b3c5)" d="M11.166 4.963c0-.234-.031-.424-.168-.424s-.168.19-.168.424c0 .093-.003.179.005.248a1.044 1.044 0 0 0 .334-.001l-.006.001c.008-.07.004-.156.004-.248z"/><path fill="#63363b" style="fill:var(--color8,#63363b)" d="M15.392 25.06s.293.106.69.135c.396.03.957-.101.957-.101s.152.866.09 1.378c-.031.257-.198.303-.535.519-.211.135-.499.429-.829.601-.351.182-1.253.179-1.613.008-.754-.358-.478-.753-.035-1.073a3.78 3.78 0 0 0 .565-.516l.003-.004c.406-.489.707-.947.707-.947z"/><path fill="#363b4e" style="fill:var(--color9,#363b4e)" d="M14.961 17.613c-.013-.909-.109-3.298.055-3.67.141-.322 1.398-.707 2.005-.421s1.064 1.284 1.064 1.284-.056 1.395-.264 2.247c-.208.852-.605 2.55-.605 2.55s.383 1.013.31 1.944c-.105 1.347-.488 3.521-.488 3.521s-.331.142-.822.132c-.524-.011-.845-.104-.845-.104s.017-1.362-.14-3.035c-.061-.643-.257-3.539-.27-4.449z"/><path fill="#63363b" style="fill:var(--color8,#63363b)" d="M19.357 25.384s.297.091.695.101c.397.01.952-.149.952-.149s.195.857.158 1.373c-.019.258-.183.312-.508.543-.205.146-.478.455-.799.643-.342.199-1.243.24-1.61.088-.771-.32-.515-.728-.089-1.069.152-.12.413-.375.542-.547.381-.509.659-.981.659-.981z"/><path fill="#363b4e" style="fill:var(--color9,#363b4e)" d="M17.832 17.756c-.153-2.454-.036-3.176.109-3.557.126-.328 1.486-.685 2.106-.429s1.127 1.229 1.127 1.229.053 1.191-.03 1.843c-.084.652-.47 2.908-.47 2.908s.414.994.387 1.927c-.039 1.351-.061 3.635-.061 3.635s-.324.157-.814.172c-.525.014-.849-.061-.849-.061s-.594-1.956-.834-3.62c-.093-.64-.582-2.612-.671-4.045z"/><path fill="#3e4858" style="fill:var(--color10,#3e4858)" d="M21.216 11.105c.03-.578-.037-.847.082-1.857.072-.622.421-1.592.465-2.277s.236-1.645-.354-2.078c-.591-.432-2.447-.743-3.166-.749-.721-.006-1.331.064-1.995.418-.733.39-.72 1.026-.819 2.099-.038.41-.082 1.056-.117 1.705l-.007.16c-.042 1.158-.101 2.156-.234 2.792s-.349 3.053-.351 3.207c0 0 .532.5 1.005.618s.913.177 1.535.266c.122.017.296-.884.296-.884l.266.972s1.063.177 1.89.059 1.801-.619 1.801-.619-.325-3.253-.295-3.832z"/><path fill="#f2f0eb" style="fill:var(--color3,#f2f0eb)" d="M19.559 4.563s-1.856 5.416-2.04 5.474c-.184.058-.741-2.332-.747-3.93-.008-1.598.236-1.946.236-1.946l2.551.403z"/><path fill="#363b4e" style="fill:var(--color9,#363b4e)" d="M17.075 8.291c.098 1.082.461 1.837.392 1.9s-.502-.796-.709-1.297c-.137-.333-.416-1.359-.48-1.834s.295-.972.295-.972-.259-.367-.23-.685c.029-.318.147-.888.237-1.018.156-.221.554-.31.554-.31s-.157 3.133-.059 4.216z"/><path fill="#363b4e" style="fill:var(--color9,#363b4e)" d="M19.508 4.222s.586.008.692.148c.105.141-.07.897-.111 1.255s-.596.622-.596.622.368.606.074 1.174c-.351.68-1.862 2.939-2.101 2.77-.136-.097.72-1.598 1.326-3.485.461-1.433.716-2.484.716-2.484z"/><path fill="#fff" style="fill:var(--color2,#fff)" d="M19.148 3.798s.307.169.389.312c.083.141.022.453.022.453s-.185.531-.401.766c-.216.237-.758.682-.758.682l-.558-.952 1.305-1.261z"/><path fill="#fff" style="fill:var(--color2,#fff)" d="M17.511 3.826s-.333.103-.39.227c-.058.125-.109.49-.109.49s.023.361.074.589c.057.253.275.779.275.779l.522-.761-.371-1.325z"/><path fill="#a4273b" style="fill:var(--color11,#a4273b)" d="M17.731 5.048s-.705-.568-.773-.228c-.068.339-.112.923.127.926.241.002.546-.309.546-.309l.101-.389zm.224.053s.795-.433.802-.087c.006.347-.055.929-.291.888s-.481-.401-.481-.401l-.029-.401z"/><path fill="#bd273b" style="fill:var(--color12,#bd273b)" d="M17.809 5.016c-.148.008-.232.039-.249.184s-.07.353.032.392c.103.04.392.075.431-.028s.029-.344.023-.413c-.005-.067-.089-.144-.237-.135z"/><path fill="#b77e20" style="fill:var(--color13,#b77e20)" d="m17.704 11.236-.001.016a.147.147 0 0 0 .294 0v-.001a.146.146 0 0 0-.147-.146.148.148 0 0 0-.146.13v.001zm.037 1.455-.001.016a.147.147 0 0 0 .294 0v-.001a.146.146 0 0 0-.147-.146.148.148 0 0 0-.146.13v.001zm.015 1.44-.001.016a.147.147 0 0 0 .294 0v-.001a.146.146 0 0 0-.147-.146.148.148 0 0 0-.146.13v.001z"/><path fill="#f5aa8a" style="fill:var(--color4,#f5aa8a)" d="m17.368 3.335 1.745-.438.185 1.281s-.164.139-.438.354c-.274.214-.978.597-.978.597l-.404-.472c-.113-.131-.242-.495-.242-.495l.131-.827z"/><path fill="#f5aa8a" style="fill:var(--color4,#f5aa8a)" d="M17.011.71c.377-.634 1.356-.632 1.855-.339.768.451.845 1.489.564 2.395-.155.498-.392.829-.812 1.059-.911.499-1.488.088-1.668-.206-.2-.328-.284-1.137-.276-1.447.01-.453-.037-.828.339-1.462z"/><path fill="#411b00" style="fill:var(--color14,#411b00)" d="M17.285 2.36a.147.147 0 0 1-.146.14h-.007a.147.147 0 0 1-.135-.147l.001-.014v.001c.007-.081.076-.143.155-.138s.138.076.133.158zm1.16.091a.145.145 0 0 1-.146.139h-.008a.145.145 0 0 1-.134-.146l.001-.013v.001c.006-.083.075-.145.154-.139s.139.076.133.158z"/><path fill="#592221" style="fill:var(--color15,#592221)" d="M18.803 2.035c-.204-.136-.565-.184-.754 0-.017.017-.004.051.021.049.081-.003.162.008.244.002a.68.68 0 0 1 .417.078l-.004-.002c.083.05.152-.074.075-.126zm-1.877-.008c.056-.045.185-.031.25-.025.081.008.189.02.264.048.02.008.042-.016.035-.035-.078-.221-.496-.236-.655-.092-.071.066.032.163.104.104z"/><path fill="#d27d73" style="fill:var(--color16,#d27d73)" d="M17.792 3.194s-.024-.002-.063-.013a.581.581 0 0 1-.16-.071l.002.001a.512.512 0 0 1-.094-.076.36.36 0 0 1-.086-.157l-.001-.003c-.002-.015-.005-.032-.005-.048 0-.03.006-.063.019-.093.025-.059.071-.094.105-.124s.067-.055.087-.079l.008-.009-.003.004.002-.003.003-.004.003-.007a.103.103 0 0 0 .01-.024l.017-.053c.011-.039.017-.078.025-.115l.019-.106.029-.162.013-.061a1.479 1.479 0 0 0 .029.475l-.002-.01c-.003.024-.005.044-.013.072a.201.201 0 0 1-.012.037l-.003.008-.002.003v.002l-.001.001-.003.006-.011.019c-.03.051-.07.083-.103.112s-.057.056-.068.078a.07.07 0 0 0-.008.035v.017c0 .008.004.02.006.03a.25.25 0 0 0 .04.085c.017.029.04.054.061.078.042.047.084.084.115.111l.047.042z"/><path fill="#592221" style="fill:var(--color15,#592221)" d="M16.699 1.132c.028-.063-.045-.391.021-.544s.407-.328.784-.461c.396-.139.85-.177 1.368-.051s.984.465.979 1.016c-.003.462-.072 1.233-.17 1.272.149-.045-.005.015-.159.074l-.306.102s-.222-.539-.157-.691c.066-.153-.15-.663-.25-.697-.082.003-.714.189-1.103.197-.387.008-.606-.295-.609-.292 0 0-.126.153-.204.286s-.227.52-.227.52-.081-.084-.08-.293c.001-.208.054-.303.112-.439z"/><path fill="#f5aa8a" style="fill:var(--color4,#f5aa8a)" d="M19.432 2.045c.307-.107.472.254.352.674-.076.264-.438.385-.591.31.013-.269-.045-.884.239-.984z"/><path fill="#d3ecfe" style="fill:var(--color17,#d3ecfe)" d="M17.752 2.687c.877.027 1.336-.149 1.336-.149s.167.927-.16 1.206c-.306.26-.843.454-1.346.35s-.68-.455-.802-.73c-.124-.275-.126-.899-.126-.899s.221.195 1.098.221z"/><path fill="#b1d7de" style="fill:var(--color18,#b1d7de)" d="M16.776 2.68s.26.202.891.227c.664.027 1.31-.199 1.31-.199l.018.172s-.88.192-1.299.158a5.395 5.395 0 0 1-.888-.168l-.031-.19zm.075.518s.241.149.833.173c.623.025 1.296-.195 1.296-.195l-.012.162s-.864.189-1.257.157c-.393-.031-.833-.157-.833-.157l-.027-.139zm2.022.403c-.243.063-.688.16-1.112.142-.438-.018-.682-.104-.781-.147.011.043.024.087.038.13.136.036.467.116.77.141.265.021.743-.057 1.027-.11a.456.456 0 0 0 .057-.155z"/><path fill="#f5aa8a" style="fill:var(--color4,#f5aa8a)" d="M17.68 11.211s-1.04-.528-1.624-.233c-.584.295-.82.701-.869.883-.1.367.131.334.131.334s-.047.077.043.166a.542.542 0 0 0 .163.117l.003.001s.017.137.057.164c.04.028.077.042.108.04.124-.014.812-.505 1.137-.604.136-.042.282.072.455.109.239.051.518-.142.518-.142s.101-.598-.123-.835z"/><path fill="#f2f0eb" style="fill:var(--color3,#f2f0eb)" d="M21.064 4.983c-.331.072-.749.595-.881 1.541s-.432 2.771-.466 2.948c-.034.178-.472.407-.845.634-.211.129-.941.68-.941.68l-.484.185s.163.44.233.659c.071.22.099.595.099.595l.44-.114s.786-.077 1.216-.181c.794-.19 1.999-.484 2.227-.989s.367-2.659.442-3.412c.076-.753-.054-1.834-.237-2.141s-.473-.477-.804-.406z"/><path fill="#dcd8da" style="fill:var(--color19,#dcd8da)" d="M18.657 11.724v.002c0 .061-.05.111-.111.111s-.11-.048-.111-.109v-.002c0-.061.05-.111.111-.111s.11.048.111.109z"/><path fill="#e9dbda" style="fill:var(--color20,#e9dbda)" d="M18.278 10.758c.179.144.652.136.612 1.227s-.096 2.95-.146 3.452c-.051.502-.161.946.076 1s.44-.155.44-.155.182.233.564.197c.384-.036.438-.303.675-.307s.382-.124.526-.333c.143-.21.237-1.625.223-2.392s-.226-2.767-.618-3.232c-.392-.465-.97-.61-1.103-.629s-.238.109-.556.275c-.084.044-.263.241-.263.241s-.323.065-.468.215c-.145.15-.143.296.037.441z"/><path fill="#433431" style="fill:var(--color21,#433431)" d="M1.232 25.29c-.075.825-.488 2.848-.6 3.261-.099.362-.188.599.188.562s.451-.112.676-.749c.225-.637.543-2.289.675-3.148.15-.974.226-3.597.226-3.597H1.383s-.076 2.847-.151 3.672zm3.821-4.722c-.023.779-.082 2.685-.141 3.335-.076.825-.488 2.848-.601 3.261-.099.363-.188.6.188.563s.451-.113.676-.749c.225-.637.543-2.289.675-3.148.118-.76.189-2.52.215-3.261H5.053zm3.001 4.722c-.075-.824-.15-3.672-.15-3.672H6.89s.076 2.622.226 3.597c.132.859.451 2.51.675 3.148s.301.712.676.749c.376.037.286-.199.188-.563-.113-.412-.525-2.435-.601-3.259zm2.741-1.386c-.059-.65-.118-2.557-.141-3.335H9.642c.025.739.097 2.501.214 3.259.133.859.451 2.511.676 3.149s.301.712.675.749c.376.037.287-.2.188-.563-.112-.413-.525-2.435-.6-3.26z"/><path fill="#563e3e" style="fill:var(--color22,#563e3e)" d="M3.71 12.825s-2.291-.125-2.853 0c-.404.089-1.052.249-.802 1.198s.702 4.198.751 5.547c.051 1.349.051 2.448.701 2.598s5.607 0 5.607 0 .851 0 1.903-.399c1.051-.4 1.701-.65 1.701-.65s.651-.399-.65-.549c-1.302-.15-5.707.05-5.707.05l-.651-7.794z"/><path fill="#6e5550" style="fill:var(--color23,#6e5550)" d="M10.068 20.568c-1.302-.149-5.707.051-5.707.051l-.651-7.795s-2.291-.125-2.853 0c-.054.013-.113.025-.173.042-.059.163-.067.379.01.67.25.949.701 4.197.75 5.545.019.488.051.963.068 1.336.034.688.019 1.275.019 1.275s2.067-.16 2.403-.15c1.553.047 3.867.038 3.867.038s.8.1 1.853-.3l1.2-.458c-.066-.097-.275-.195-.787-.254z"/><path fill="#f5aa8a" style="fill:var(--color4,#f5aa8a)" d="M7.427 14.284s.135.769.194 1.172c.057.404.096 1.404.096 1.404l.347.077.097.724s-1.157.411-1.542.007c-.386-.404-.212-3.518-.212-3.518l1.021.135z"/><path fill="#e49e80" style="fill:var(--color24,#e49e80)" d="m11.405 24.121.586 2.217 1.335-.237-.488-2.322-1.432.342z"/><path fill="#448294" style="fill:var(--color25,#448294)" d="M6.131 17.902s5.29-.6 5.912.587c.622 1.187 1.246 5.996 1.132 6.168-.115.171-1.745.348-1.799.163-.099-.337-1.024-3.821-1.283-4.16s-2.301.22-3.313.256c-1.051.037-2.569.271-2.944-.33-.35-.561-.318-2.2-.318-2.2l2.613-.484z"/><path fill="#f5aa8a" style="fill:var(--color4,#f5aa8a)" d="m8.925 25 .278 2.279 1.354-.043-.168-2.369L8.925 25z"/><path fill="#4c96a6" style="fill:var(--color26,#4c96a6)" d="M4.48 18.225s5.138.361 5.741 1.384c.682 1.157.52 6.022.383 6.175s-1.775.053-1.804-.138c-.051-.348-.579-3.72-.79-4.094s-1.847-.225-3.08-.2c-.541.011-1.485.005-1.978-.154-.466-.15-.904-.467-1.044-.783-.269-.605-.015-2.223-.015-2.223l2.588.034z"/><path fill="#fd5103" style="fill:var(--color1,#fd5103)" d="M13.342 25.997s.931.61 1.843 1.152c.354.211.678.596.293.905-.191.153-1.225.367-1.923.052-.795-.359-1.478-.331-1.708-.6s.082-1.272.082-1.272l1.414-.237z"/><path fill="#fd5103" style="fill:var(--color1,#fd5103)" d="M13.566 26.91s-.663-.291-.906-.627l.906.627zM15.507 27.654s-.188.231-.668.285c-.48.055-.769.052-1.192-.078s-.654-.317-1.005-.397c-.352-.08-.641-.082-.801-.219zM10.602 27.143s.769.804 1.533 1.539c.297.285.525.734.081.948-.221.106-1.277.08-1.885-.385-.693-.529-1.364-.657-1.527-.97s.369-1.221.369-1.221l1.43.089z"/><path fill="#8db1cc" style="fill:var(--color27,#8db1cc)" d="M10.621 25.433s-.335.163-.881.137c-.546-.026-.984-.219-.984-.219s-.152.295-.014.493c.138.199.466.305 1 .363s.899-.093.988-.296c.088-.202-.109-.477-.109-.477z"/><path fill="#88a5bd" style="fill:var(--color28,#88a5bd)" d="M13.185 24.339s-.292.23-.832.32c-.539.088-1.026-.107-1.026-.107s-.069.419.108.584.52.2 1.054.145c.535-.055.861-.28.904-.497s-.209-.445-.209-.445z"/><path fill="#5f6775" style="fill:var(--color29,#5f6775)" d="M2.964 18.931c-.365.191-.977.438-1.171.567s-.28-.376-.253-.632c.025-.256.102-.461.102-.461s-.037-.699-.018-.999c.02-.325.039-.64.04-.909.003-1.642-.227-4.115.274-4.923s1.76-1.038 3.082-1c1.323.039 1.991.603 2.145 1.192s.283 1.41.283 1.718c0 .307.179.743.102.845s-.539.154-.539.154-.174.985-.179 1.256c-.025 1.256-.027 2.114-.027 2.114s-1.145.229-1.843.387c-.697.158-1.317.334-1.997.691z"/><path fill="#5f6775" style="fill:var(--color29,#5f6775)" d="M6.754 11.586s.179.641.205 1.076c.025.436.129 1.487.051 1.821zM1.694 18.532s1.309-.615 2.466-.819l-2.466.819z"/><path fill="#f5aa8a" style="fill:var(--color4,#f5aa8a)" d="m5.581 9.962.049.669s.041.691-.565.769c-.606.077-1.064-.818-1.064-.818l-.002-1.101 1.583.481z"/><path fill="#592c30" style="fill:var(--color30,#592c30)" d="M6.036 7.245s.545.312.532 1.059c-.013.747-.329.792-.584.611S4.949 7.806 4.949 7.806l.328-.847.76.286z"/><path fill="#f5aa8a" style="fill:var(--color4,#f5aa8a)" d="M6.156 7.702c.307.849.269 2.545-.629 2.647s-1.413 0-1.855-1.398c-.442-1.397.351-1.979.712-2.05.28-.055 1.465-.048 1.773.801z"/><path fill="#522c31" style="fill:var(--color31,#522c31)" d="M4.647 8.854a.137.137 0 0 0 .258-.088v.001a.138.138 0 0 0-.127-.085.137.137 0 0 0-.132.174v-.001zm1.182-.05c.026.076.105.118.177.093.071-.024.109-.105.083-.181s-.105-.118-.177-.093c-.072.024-.109.105-.083.181z"/><path fill="#d27d73" style="fill:var(--color16,#d27d73)" d="M5.379 8.523c.034.07.059.141.082.212.012.035.021.072.031.108l.028.108-.029-.044c.034.019.061.039.091.061a.709.709 0 0 1 .122.116l.001.001c.012.017.024.032.034.054a.157.157 0 0 1 .022.073.132.132 0 0 1-.024.089l-.014.018-.003.004-.005.005h-.001l-.002.001-.005.004-.021.014-.043.029c-.015.008-.028.019-.045.028l-.051.023a.732.732 0 0 1-.2.063l-.004.001.079-.067c.028-.021.051-.045.077-.065l.036-.03c.013-.008.025-.024.037-.035l.036-.036.019-.018.003-.003v-.004c.003-.001.001-.003 0-.003.002 0 0-.003-.001-.004l-.004-.008c0-.004-.003-.008-.007-.013-.004-.01-.014-.021-.022-.031-.01-.011-.019-.022-.03-.032a1.312 1.312 0 0 0-.068-.062l-.002-.001c-.024-.02-.051-.04-.076-.059l-.026-.022-.003-.022-.011-.112c-.003-.038-.006-.074-.007-.112a1.576 1.576 0 0 1 .006-.227z"/><path fill="#592c30" style="fill:var(--color30,#592c30)" d="m6.198 8.54.016-.002c.051-.006.066-.062.025-.093-.101-.076-.339-.118-.44-.029-.038.032-.003.082.036.087.058.008.118-.013.179-.008.066.005.124.028.187.042l-.012-.092-.014.008c-.036.023-.025.093.023.087zm-1.15-.113c-.045-.059-.153-.061-.221-.068-.112-.012-.259.009-.347.083-.019.015-.015.045 0 .061l-.001-.012c-.002.008 0 .02.009.024l.008.004c.021.01.042.002.051-.02l.005-.014-.042.031c.098.005.187-.053.286-.052.034 0 .067.005.1.008l.088.004c.032.025.093-.009.063-.049z"/><path fill="#fff" style="fill:var(--color2,#fff)" d="M5.639 9.586a1.302 1.302 0 0 1-.291.025c-.206-.024-.33-.255-.421-.194-.093.063-.199.42.132.522.439.136.579-.354.579-.354z"/><path fill="#592c30" style="fill:var(--color30,#592c30)" d="M6.444 7.178c-.267-.259-.484-.286-.484-.286s-.255-.449-.824-.582c-.569-.134-.877.349-.877.349s-.501-.132-.808.283c-.307.414-.149 1.06.328 1.159s.691-.433.691-.433.581.227.854.166c.273-.063.47-.304.47-.304s.217.616.64.509c.313-.08.278-.601.01-.861z"/><path fill="#592c30" style="fill:var(--color30,#592c30)" d="M3.507 7.294s-.528.327-.512.762c.016.435.297.657.297.657s.295.066.404.267c.11.201.264.195.364.089.029-.03.022-.341.022-.341s.087-.201.076-.509c-.012-.307-.077-.691-.077-.691l-.574-.236z"/><path fill="#f5aa8a" style="fill:var(--color4,#f5aa8a)" d="M3.853 8.864c-.071-.28-.564-.415-.621-.078s.221.737.548.772c.328.035.145-.413.073-.694zm6.34 8.595c-.052-.235-.294-.517-.497-.58-.275-.084-.741-.227-1.018-.151-.095.026-.557.083-.726.185s-.025.595.123.745l.163.003c.233.003.643.059.746.071.179.019.368.184.463.017s-.231-.28-.116-.293a.317.317 0 0 1 .275.115c.098.109.188.215.253.271.159.139.264-.123.264-.123s.122-.03.071-.261z"/><path fill="#6e5550" style="fill:var(--color23,#6e5550)" d="M17.872 29.882c0 .371-1.187.507-2.652.507s-2.652-.135-2.652-.507c0-.371 1.187-.673 2.653-.673 1.464 0 2.651.301 2.651.674z"/><path fill="#433431" style="fill:var(--color21,#433431)" d="M14.845 18.017v11.442h.002c.008.115.171.208.373.208s.365-.093.374-.208h.001V18.017h-.749z"/><path fill="#957765" style="fill:var(--color32,#957765)" d="M15.22 17.93H6.624l.008.48c.004.164.051.268.157.334.082.051.377.131 1.017.173 2.016.131 6.037.056 7.413.067 1.377-.012 5.398.064 7.414-.067.64-.042.935-.122 1.016-.173.108-.067.154-.17.157-.333l.008-.48h-8.596z"/><path fill="#ae8b76" style="fill:var(--color33,#ae8b76)" d="M15.22 17.74c-1.819.005-8.596.052-8.596.19s.781.267 8.596.267 8.596-.128 8.596-.267c0-.138-6.776-.185-8.596-.19z"/><path fill="#f3f3f3" style="fill:var(--color34,#f3f3f3)" d="M17.539 17.853c0 .098-.57.177-1.274.177s-1.275-.079-1.275-.177c0-.099.571-.179 1.275-.179s1.274.079 1.274.178z"/><path fill="#d7d7d7" style="fill:var(--color35,#d7d7d7)" d="M16.265 17.943c.493 0 .893-.051.893-.112s-.4-.112-.893-.112-.893.051-.893.112.399.112.893.112z"/><path fill="#fbfbfb" style="fill:var(--color36,#fbfbfb)" d="M16.265 16.494c-.637 0-.975.098-.975.098 0 .23.221.852.364.968s.333.182.611.182c.278 0 .468-.067.611-.182s.364-.738.364-.968c0 0-.339-.098-.975-.098z"/><path fill="#eee" style="fill:var(--color37,#eee)" d="M15.311 16.616c0 .036.428.065.954.065s.953-.029.953-.065c0-.035-.427-.097-.953-.097s-.954.061-.954.097z"/><path fill="#fbfbfb" style="fill:var(--color36,#fbfbfb)" d="M16.96 17.538a.403.403 0 0 1-.107-.011l.021-.09c.003 0 .2.047.424-.098.135-.088.225-.216.234-.334a.201.201 0 0 0-.063-.168c-.131-.121-.295.014-.296.016l-.056-.073c.077-.065.261-.151.411-.013a.301.301 0 0 1 .093.248c-.012.147-.118.302-.276.404a.696.696 0 0 1-.384.12z"/><path fill="#eee" style="fill:var(--color37,#eee)" d="M16.265 17.645c-.517 0-.789-.46-.863-.566.076.213.174.419.25.48.086.068.139.114.168.139-.088.019-.142.045-.142.074 0 .062.264.114.588.114s.587-.051.587-.114c0-.029-.053-.055-.141-.074.029-.025.081-.07.168-.139.076-.061.174-.267.249-.48-.073.106-.345.566-.862.566z"/><path fill="#f3f3f3" style="fill:var(--color34,#f3f3f3)" d="M10.271 17.903c0 .099-.571.178-1.275.178s-1.274-.079-1.274-.178.571-.178 1.274-.178c.704 0 1.275.079 1.275.178z"/><path fill="#d7d7d7" style="fill:var(--color35,#d7d7d7)" d="M9.89 17.881c0 .062-.4.112-.893.112s-.893-.051-.893-.111c0-.062.4-.112.893-.112s.893.051.893.111z"/><path fill="#433431" style="fill:var(--color21,#433431)" d="M22.97 23.107c.022.777.082 2.685.141 3.335.075.824.488 2.847.6 3.259.099.364.188.6-.188.563s-.451-.112-.675-.749c-.226-.637-.543-2.288-.676-3.148-.117-.759-.189-2.52-.214-3.259h1.012z"/><path fill="#323d67" style="fill:var(--color38,#323d67)" d="M21.139 27.816s.025.224-.012.484c-.03.215-.13.446-.266.699-.125.233-.333.381-.534.733-.155.272.017.573.279.665.486.173 1.275-.339 1.52-.804a2.01 2.01 0 0 1 .798-.833l.01-.005c.259-.146.446-.564.172-.884-.109-.128-.293-.295-.493-.482-.237-.221-.411-.419-.411-.419l-1.063.845z"/><path fill="#dba990" style="fill:var(--color39,#dba990)" d="M21.51 29.023c.384-.357.587-.813.866-1.124.153-.172.261-.32.248-.5l-.01-.008-.001-.001c-.237-.221-.411-.419-.411-.419l-1.063.845s.025.224-.012.484c-.03.215-.13.446-.266.699a1.338 1.338 0 0 1-.079.126c.095.155.408.195.728-.103z"/><path fill="#212a3f" style="fill:var(--color40,#212a3f)" d="M18.741 21.459c-.49.005-.778.157-.856 1.007s1.696 3.833 1.951 4.404c.256.57.528 1.202.528 1.202s.671.019 1.184-.274c.514-.292 1.018-.867 1.018-.867s-1.352-2.708-1.675-3.254a48.52 48.52 0 0 0-1.153-1.826l.14.224s-.648-.622-1.138-.616z"/><path fill="#43528b" style="fill:var(--color41,#43528b)" d="M18.697 28.796s-.023.225-.113.472c-.074.204-.219.41-.405.629-.171.202-.405.303-.675.606-.208.233-.101.563.135.707.44.269 1.318-.067 1.655-.472.246-.303.574-.53.95-.648l.014-.004c.285-.089.555-.46.352-.83-.08-.147-.225-.349-.382-.573-.187-.266-.315-.494-.315-.494l-1.216.606z"/><path fill="#f5aa8a" style="fill:var(--color4,#f5aa8a)" d="M18.809 30.054c.451-.269.743-.674 1.08-.921.185-.136.323-.259.345-.438l-.008-.011c-.185-.266-.314-.494-.314-.494l-1.215.606s-.023.225-.113.472c-.074.204-.219.41-.405.629a1.043 1.043 0 0 1-.104.106c.061.172.358.276.734.051z"/><path fill="#344163" style="fill:var(--color42,#344163)" d="M17.673 22.08c-.482-.096-.794-.008-1.047.808s.862 4.101.994 4.712.266 1.285.266 1.285.653.157 1.216-.023c.562-.179 1.176-.638 1.176-.638s-.76-2.929-.962-3.528c-.202-.601-.659-1.777-.659-1.777s-.504-.744-.985-.84z"/><path fill="#433431" style="fill:var(--color21,#433431)" d="M26.79 27.597c.076.824.488 2.848.6 3.26.099.364.188.6-.188.563s-.45-.113-.675-.749c-.226-.637-.543-2.289-.676-3.148-.15-.974-.225-3.597-.225-3.597h1.014s.075 2.848.15 3.672zm-6.822.577c.076-.825.15-3.672.15-3.672h1.014s-.076 2.622-.225 3.596c-.133.859-.451 2.511-.676 3.148s-.301.712-.675.749c-.376.038-.287-.198-.188-.562.112-.413.525-2.435.6-3.26zm-2.741-1.387c.06-.65.119-2.557.141-3.335h1.012c-.026.74-.098 2.501-.215 3.26-.132.859-.451 2.511-.675 3.148s-.301.712-.676.749c-.376.038-.286-.199-.188-.562.113-.413.525-2.436.6-3.261z"/><path fill="#563e3e" style="fill:var(--color22,#563e3e)" d="M26.467 24.608c-.357.248-5.558.098-5.558.098s-.851 0-1.903-.4l-1.701-.649s-.652-.4.65-.55c1.302-.15 5.707.051 5.707.051s1.302.143 2.111.528c.808.384 1.05.674.694.923z"/><path fill="#344163" style="fill:var(--color42,#344163)" d="M20.531 20.763s-3.702.643-3.803 1.991c-.076 1.013.339.623 1.148.547.808-.077 2.24-.143 3.162.055.693.148 2.683.288 2.809-.576s-.126-1.729-.481-2.017c-.355-.288-2.835 0-2.835 0z"/><path fill="#5f6775" style="fill:var(--color29,#5f6775)" d="M25.538 21.676s-.138-2.072-.135-2.392c.008-.659.195-2.292.168-3.605-.035-1.785-.701-2.179-1.451-2.46s-1.891-.067-2.397.067c-.507.135-1.357.914-1.152 2.503s.128 2.051.128 2.872c0 .82-.63 2.072-.495 2.341.056.112 1.013 1.28 2.329 1.347s3.005-.674 3.005-.674z"/><path fill="#f5aa8a" style="fill:var(--color4,#f5aa8a)" d="M17.711 18.398s-.381-.68-1.039-.808c-.659-.131-1.224.303-1.226.354-.001.01-.087.051-.102.147s.034.125.034.125-.143.059-.136.174c.006.115.08.139.08.139s-.116.194.015.213c.113.017.169-.03.286-.042.147-.013.314 0 .426.024.2.042.286.292.523.328.384.057.754.065.92-.054s.22-.6.22-.6z"/><path fill="#f5aa8a" style="fill:var(--color4,#f5aa8a)" d="m17.669 18.225-.272.776s1.069.249 2.173.147c1.105-.103 1.794-.212 2.029-.717s.478-2.653.411-3.461c-.067-.808-.36-1.204-.797-1.256s-.771.923-.847 1.64c-.077.717-.36 2.102-.36 2.102s-.925.256-1.284.359c-.36.103-1.053.41-1.053.41zm4.312-6.24-.126 1.293s.386.179.925.128c.539-.051.796-.359.796-.359l-.266-1.142-1.329.08z"/><path fill="#f5aa8a" style="fill:var(--color4,#f5aa8a)" d="M20.899 10.904c.056-.132.078-.625.116-.811.239-1.18 1.499-1.305 2.222-.968s.923 1.872.644 2.339c-.278.468-1.011.804-1.337.935s-.808.386-1.318.157c-.272-.122-.31-.829-.349-.867-.086-.085-.26-.189-.235-.335.115-.189.202-.318.257-.451z"/><path fill="#481609" style="fill:var(--color43,#481609)" d="M21.314 10.813a.128.128 0 0 0-.181-.063h.001a.16.16 0 0 0-.064.2v-.001a.128.128 0 0 0 .18.062h-.001a.16.16 0 0 0 .066-.198z"/><path fill="#954331" style="fill:var(--color44,#954331)" d="M21.46 10.644a.037.037 0 0 0 .03-.013c.01-.008.013-.024.01-.035-.003-.008-.01-.014-.013-.023.012.037.003-.001-.01-.016-.024-.029-.069-.043-.103-.056a.546.546 0 0 0-.332-.023l.004-.001c-.081.021-.046.147.034.124a.457.457 0 0 1 .25.009l-.003-.001c.029.008.059.018.089.025l.025.004a.03.03 0 0 0 .019-.001c.022-.008.014-.009-.023-.007l-.009-.035v.002l.025-.025h-.003c-.037.016-.033.067.009.071z"/><path fill="#954331" style="fill:var(--color44,#954331)" d="M24.707 12.893c-.18-.359-.179-.947-.126-1.726a2.447 2.447 0 0 0-.174-1.12l.006.016c-.097-.735-.663-1.044-.994-1.198-.345-.16-1.065-.362-1.943.179-.369.227-.553.653-.452.963s.438.392.702.734c.264.344.046.598.36.898.05.047.1.101.152.157a1.079 1.079 0 0 1-.177.458c-.159.208-.122.552-.042.838.078.286.237.623.184.857s-.348.741-.117 1.202c.232.461.591.77 1.053.589.463-.179.771-.409 1.182-.487s.923-.296 1.002-.795c.077-.498-.438-1.204-.617-1.563z"/><path fill="#f5aa8a" style="fill:var(--color4,#f5aa8a)" d="M21.88 11.25s.131-.536.49-.227c.36.307-.051.821-.356.805s-.135-.578-.135-.578z"/><path fill="#fff" style="fill:var(--color2,#fff)" d="M20.931 11.893s.195-.019.333-.077c.159-.067.268-.171.308-.103.077.128.077.487-.36.487-.284 0-.282-.307-.282-.307z"/><path fill="#563e3e" style="fill:var(--color22,#563e3e)" d="M26.543 24.608c.651-.15.622-1.152.672-2.501s.501-4.596.751-5.545-.396-1.109-.801-1.199c-.368-.082-2.394.056-2.741.093s-.991.192-1.194.385c-.267.253-.232 3.384-.232 3.384l-.385 4.768s0 .692 1.347.654c1.349-.039 2.582-.039 2.582-.039zm-4.623-.492c.011 0 .011-.017 0-.017s-.01.017 0 .017z"/><path fill="#6e5550" style="fill:var(--color23,#6e5550)" d="M22.627 23.818c.18.013.36.029.539.045l.372-4.6s-.035-3.132.231-3.384c.204-.194.848-.346 1.194-.385a32.29 32.29 0 0 1 2.259-.119l-.057-.013c-.368-.082-2.394.056-2.741.093s-.991.192-1.194.385c-.267.253-.232 3.384-.232 3.384l-.371 4.594z"/><path fill="#fbfbfb" style="fill:var(--color36,#fbfbfb)" d="M8.557 16.392c.637 0 .975.099.975.099 0 .229-.221.852-.364.967s-.333.182-.611.182c-.278 0-.468-.067-.611-.182s-.364-.738-.364-.967c0 0 .339-.099.975-.099z"/><path fill="#eee" style="fill:var(--color37,#eee)" d="M9.511 16.514c0 .036-.428.065-.954.065s-.953-.029-.953-.065c0-.035.427-.097.953-.097s.954.061.954.098z"/><path fill="#fbfbfb" style="fill:var(--color36,#fbfbfb)" d="M7.862 17.435a.471.471 0 0 0 .106-.01l-.021-.091c-.002 0-.2.047-.424-.098-.135-.088-.225-.216-.234-.334a.201.201 0 0 1 .063-.168c.131-.12.295.014.296.016l.056-.073c-.077-.065-.261-.151-.411-.013a.298.298 0 0 0-.093.247c.012.147.118.302.276.405a.704.704 0 0 0 .384.12z"/><path fill="#eee" style="fill:var(--color37,#eee)" d="M8.557 17.543c.517 0 .789-.46.863-.566-.076.213-.174.419-.25.48-.066.052-.12.098-.174.144l.006-.005c.088.02.142.045.142.074 0 .062-.264.114-.588.114s-.588-.051-.588-.114c0-.029.054-.055.143-.074a8.287 8.287 0 0 0-.168-.139c-.076-.061-.174-.267-.249-.48.073.107.345.566.862.566z"/><path fill="#f5aa8a" style="fill:var(--color4,#f5aa8a)" d="m3.376 15.929.005-2.044-1.703.125s-.037 2.521.516 2.983c0 0 .483-.037.828-.303s.354-.76.354-.76z"/><path fill="#f5aa8a" style="fill:var(--color4,#f5aa8a)" d="M2.225 17.025c.64.493 3.762.68 3.762.68l.128-.916s-1.851-1.063-2.287-1.236c-.435-.174-.812-.162-.812-.162s-.489.124-.669.399c-.179.276-.515.931-.121 1.235z"/><path fill="#f5aa8a" style="fill:var(--color4,#f5aa8a)" d="M7.832 17.581c.014-.141-.108-.102-.327-.093l.051-.011s.345-.021.354-.243c.01-.273-.235-.121-.501-.093a.463.463 0 0 1-.054.003c.056-.008.109-.017.155-.027.261-.056.36-.171.328-.252-.091-.243-.209-.112-.476-.084a1.287 1.287 0 0 1-.396-.045.217.217 0 0 1 .167-.04h-.001c.236.039.422-.134.345-.232s-.474-.255-.845-.115c-.371.139-.755.093-.94.435-.16.296-.193.6-.043.857.109.187.591.333.904.338.179.035.386.071.562.065.275-.01.403-.029.457-.11s.013-.112-.061-.142h.004c.141-.017.303-.069.317-.211z"/><path fill="#5f6775" style="fill:var(--color29,#5f6775)" d="M3.594 12.063s.177 2.384.008 2.66c-.17.276-2.031.4-2.232.202s.043-.396-.026-1.194c-.082-.936.234-2.002.71-2.351.93-.684 1.564.003 1.541.682z"/><path fill="#5f6775" style="fill:var(--color29,#5f6775)" d="M3.555 11.9s.214.25.121.768-.245 1.03-.221 1.301.174.618.098.755c-.083.147-.257.147-.257.147zM3.21 14.168s-.874-.259-1.425-.29l1.425.29z"/></symbol><symbol id="icon-arrowdown" viewBox="0 0 52 32"><path d="m27.753 28.887 23.185-24.32c.369-.39.596-.918.596-1.498s-.227-1.108-.597-1.499l.001.001-.029-.029c-.366-.385-.883-.624-1.455-.624s-1.088.239-1.454.623l-.001.001-21.818 22.895L4.363 1.542C3.997 1.157 3.48.918 2.908.918s-1.088.239-1.454.623l-.001.001c-.377.392-.61.925-.61 1.513s.232 1.121.61 1.513l-.001-.001 23.156 24.32c.397.412.954.668 1.571.668s1.173-.256 1.57-.667l.001-.001z"/></symbol><symbol id="icon-menu-burger" viewBox="0 0 56 32"><path d="M1.882.941h52.706a1.882 1.882 0 1 1 0 3.764H1.882a1.882 1.882 0 1 1 0-3.764zM1.882 14.118h52.706a1.882 1.882 0 1 1 0 3.764H1.882a1.882 1.882 0 1 1 0-3.764zM1.882 27.294h52.706a1.882 1.882 0 1 1 0 3.764H1.882a1.882 1.882 0 1 1 0-3.764z"/></symbol><symbol id="icon-arrow" viewBox="0 0 52 32"><path d="M3.372 6.375 26 29.003 48.628 6.375 45.8 3.547 26 23.347 6.2 3.547 3.372 6.375z"/></symbol><symbol id="icon-Vector" viewBox="0 0 52 32"><path d="M3.372 6.375 26 29.003 48.628 6.375 45.8 3.547 26 23.347 6.2 3.547 3.372 6.375z"/></symbol></defs></svg>