<svg aria-hidden="true" style="position: absolute; width: 0; height: 0; overflow: hidden;" version="1.1" xmlns="http://www.w3.org/2000/svg" xmlns:xlink="http://www.w3.org/1999/xlink">
<defs>
<symbol id="icon-loop" viewBox="0 0 30 32">
<path fill="#fd5103" style="fill: var(--color1, #fd5103)" d="M12.8 26.4c2.832 0 5.6-0.96 7.84-2.704l7.040 7.040 2.24-2.272-7.024-7.040c1.686-2.147 2.704-4.889 2.704-7.868 0-7.069-5.731-12.8-12.8-12.8s-12.8 5.731-12.8 12.8c0 0.016 0 0.031 0 0.047v-0.002c0 0.005 0 0.010 0 0.016 0 7.069 5.731 12.8 12.8 12.8 0 0 0 0 0 0v0zM12.8 4c5.303 0.005 9.6 4.304 9.6 9.608 0 5.306-4.302 9.608-9.608 9.608-0.003 0-0.006 0-0.008 0h0c-5.303-0.005-9.6-4.304-9.6-9.608 0-5.306 4.302-9.608 9.608-9.608 0.003 0 0.006 0 0.008 0h-0z"></path>
</symbol>
<symbol id="icon-toggle" viewBox="0 0 61 32">
<path fill="#fff" style="fill: var(--color2, #fff)" d="M15.238 1.219h30.476c8.163 0 14.781 6.618 14.781 14.781s-6.618 14.781-14.781 14.781h-30.476c-8.163 0-14.781-6.618-14.781-14.781s6.618-14.781 14.781-14.781z"></path>
<path fill="#fd5103" style="fill: var(--color1, #fd5103)" d="M25.905 16c0 6.733-5.458 12.19-12.19 12.19s-12.19-5.458-12.19-12.19c0-6.733 5.458-12.19 12.19-12.19s12.19 5.458 12.19 12.19z"></path>
<path fill="none" stroke="#fd5103" style="stroke: var(--color1, #fd5103)" stroke-linejoin="miter" stroke-linecap="butt" stroke-miterlimit="4" stroke-width="0.9143" d="M15.238 1.219h30.476c8.163 0 14.781 6.618 14.781 14.781s-6.618 14.781-14.781 14.781h-30.476c-8.163 0-14.781-6.618-14.781-14.781s6.618-14.781 14.781-14.781z"></path>
</symbol>
<symbol id="icon-like" viewBox="0 0 35 32">
<path fill="none" stroke="#fd5103" style="stroke: var(--color1, #fd5103)" stroke-linejoin="miter" stroke-linecap="butt" stroke-miterlimit="4" stroke-width="3.3684" d="M16.253 28.446c-4.598-4.109-8.253-7.394-10.813-10.459-2.526-3.032-3.756-5.659-3.756-8.404 0-4.413 3.503-7.899 8.051-7.899 2.56 0 5.053 1.179 6.669 3.065l1.28 1.465 1.28-1.465c1.634-1.864 4.012-3.041 6.665-3.065l0.004-0c4.564 0 8.051 3.486 8.051 7.916 0 2.728-1.229 5.339-3.756 8.387-2.543 3.065-6.215 6.366-10.796 10.476l-1.448 1.28-1.432-1.297z"></path>
</symbol>
<symbol id="icon-cross" viewBox="0 0 32 32">
<path d="M18.222 16l13.102-13.102c0.212-0.267 0.34-0.609 0.34-0.98 0-0.874-0.708-1.582-1.582-1.582-0.372 0-0.713 0.128-0.983 0.343l0.003-0.002-13.102 13.102-13.102-13.12c-0.295-0.39-0.758-0.64-1.28-0.64-0.884 0-1.6 0.716-1.6 1.6 0 0.522 0.25 0.985 0.636 1.277l0.004 0.003 13.12 13.102-13.12 13.102c-0.368 0.292-0.602 0.74-0.602 1.242 0 0.874 0.708 1.582 1.582 1.582 0.502 0 0.95-0.234 1.24-0.599l0.002-0.003 13.12-13.102 13.102 13.102c0.267 0.212 0.608 0.34 0.98 0.34 0.874 0 1.582-0.708 1.582-1.582 0-0.372-0.128-0.713-0.343-0.983l0.003 0.003-13.102-13.102z"></path>
</symbol>
<symbol id="icon-restaurant" viewBox="0 0 29 32">
<path fill="#fd5103" style="fill: var(--color1, #fd5103)" d="M26.995 8.196c-2.503-3.691-8.789-9.54-18.355-5.771-9.564 3.768-8.473 10.301-8.046 12.828s0.993 5.808 4.741 8.258c3.749 2.451 7.944 2.52 12.431 2.307s9.645-2.803 10.633-6.306c0.989-3.503 1.096-7.625-1.405-11.316z"></path>
<path fill="#f2f0eb" style="fill: var(--color3, #f2f0eb)" d="M12.904 8.342s-0.974 0.619-0.931 0.729c0.045 0.11 0.288 0.486 0.288 0.486s0.696 1.343 1.595 1.592c1.196 0.332 1.661-0.331 2.038-1.016s0.442-5.327 0.309-5.394c-0.132-0.067-0.841 0.309-1.063 1.238s-0.398 2.763-0.531 2.873c-0.133 0.111-1.263-0.221-1.263-0.221l-0.442-0.287z"></path>
<path fill="#f5aa8a" style="fill: var(--color4, #f5aa8a)" d="M10.268 8.010s-0.739-0.118-0.739 0.118 0.236 0.324 0.384 0.324c0.147 0 0.147 0.147 0.413 0.147s0.502 0.088 0.886 0.059c0.384-0.029 0.797 0.265 0.797 0.265s0.147 0.332 0.672-0.008c0.143-0.093 0.265-0.221 0.244-0.376-0.023-0.155-0.191-0.681-0.326-0.796-0.206-0.177-2.333 0.265-2.333 0.265z"></path>
<path fill="#93b3c5" style="fill: var(--color5, #93b3c5)" d="M10.998 8.37c1.581 0 2.861-0.261 2.861-0.584s-1.281-0.583-2.861-0.583c-1.58 0-2.861 0.261-2.861 0.583s1.281 0.584 2.861 0.584z"></path>
<path fill="#a1c4da" style="fill: var(--color6, #a1c4da)" d="M12.903 5.652c-0.854-0.678-1.905-0.589-1.905-0.589s-1.051-0.088-1.905 0.589c-0.854 0.677-0.788 2.076-0.788 2.076s0.54 0.438 2.693 0.438 2.693-0.438 2.693-0.438 0.066-1.398-0.788-2.076z"></path>
<path fill="#b3d9ed" style="fill: var(--color7, #b3d9ed)" d="M12.264 5.502c-0.302-0.213-0.662-0.369-1.050-0.44l-0.017-0.003h-0.13c0.261 0.125 0.484 0.28 0.679 0.465l-0.001-0.001c0.876 0.83 0.808 2.543 0.808 2.543l-0.001 0.001c0.45-0.066 0.738-0.153 0.911-0.223-0.068-0.423-0.347-1.747-1.2-2.342z"></path>
<path fill="#b3d9ed" style="fill: var(--color7, #b3d9ed)" d="M11.072 5.059c-0.047 0-0.074 0.003-0.074 0.003l-0.025-0.002c0.072 0.101 0.145 0.216 0.213 0.349 0.426 0.829 0.404 2.232 0.38 2.745 0.143-0.006 0.278-0.013 0.403-0.024-0.016-0.577-0.104-1.942-0.582-2.682-0.095-0.147-0.198-0.274-0.315-0.389l-0-0z"></path>
<path fill="#93b3c5" style="fill: var(--color5, #93b3c5)" d="M11.166 4.963c0-0.234-0.031-0.424-0.168-0.424s-0.168 0.19-0.168 0.424c0 0.093-0.003 0.179 0.005 0.248 0.049 0.008 0.106 0.012 0.164 0.012s0.115-0.004 0.17-0.013l-0.006 0.001c0.008-0.070 0.004-0.156 0.004-0.248z"></path>
<path fill="#63363b" style="fill: var(--color8, #63363b)" d="M15.392 25.060s0.293 0.106 0.69 0.135c0.396 0.030 0.957-0.101 0.957-0.101s0.152 0.866 0.090 1.378c-0.031 0.257-0.198 0.303-0.535 0.519-0.211 0.135-0.499 0.429-0.829 0.601-0.351 0.182-1.253 0.179-1.613 0.008-0.754-0.358-0.478-0.753-0.035-1.073 0.212-0.158 0.398-0.329 0.565-0.516l0.003-0.004c0.406-0.489 0.707-0.947 0.707-0.947z"></path>
<path fill="#363b4e" style="fill: var(--color9, #363b4e)" d="M14.961 17.613c-0.013-0.909-0.109-3.298 0.055-3.67 0.141-0.322 1.398-0.707 2.005-0.421s1.064 1.284 1.064 1.284-0.056 1.395-0.264 2.247c-0.208 0.852-0.605 2.55-0.605 2.55s0.383 1.013 0.31 1.944c-0.105 1.347-0.488 3.521-0.488 3.521s-0.331 0.142-0.822 0.132c-0.524-0.011-0.845-0.104-0.845-0.104s0.017-1.362-0.14-3.035c-0.061-0.643-0.257-3.539-0.27-4.449z"></path>
<path fill="#63363b" style="fill: var(--color8, #63363b)" d="M19.357 25.384s0.297 0.091 0.695 0.101c0.397 0.010 0.952-0.149 0.952-0.149s0.195 0.857 0.158 1.373c-0.019 0.258-0.183 0.312-0.508 0.543-0.205 0.146-0.478 0.455-0.799 0.643-0.342 0.199-1.243 0.24-1.61 0.088-0.771-0.32-0.515-0.728-0.089-1.069 0.152-0.12 0.413-0.375 0.542-0.547 0.381-0.509 0.659-0.981 0.659-0.981z"></path>
<path fill="#363b4e" style="fill: var(--color9, #363b4e)" d="M17.832 17.756c-0.153-2.454-0.036-3.176 0.109-3.557 0.126-0.328 1.486-0.685 2.106-0.429s1.127 1.229 1.127 1.229 0.053 1.191-0.030 1.843c-0.084 0.652-0.47 2.908-0.47 2.908s0.414 0.994 0.387 1.927c-0.039 1.351-0.061 3.635-0.061 3.635s-0.324 0.157-0.814 0.172c-0.525 0.014-0.849-0.061-0.849-0.061s-0.594-1.956-0.834-3.62c-0.093-0.64-0.582-2.612-0.671-4.045z"></path>
<path fill="#3e4858" style="fill: var(--color10, #3e4858)" d="M21.216 11.105c0.030-0.578-0.037-0.847 0.082-1.857 0.072-0.622 0.421-1.592 0.465-2.277s0.236-1.645-0.354-2.078c-0.591-0.432-2.447-0.743-3.166-0.749-0.721-0.006-1.331 0.064-1.995 0.418-0.733 0.39-0.72 1.026-0.819 2.099-0.038 0.41-0.082 1.056-0.117 1.705l-0.007 0.16c-0.042 1.158-0.101 2.156-0.234 2.792s-0.349 3.053-0.351 3.207c0 0 0.532 0.5 1.005 0.618s0.913 0.177 1.535 0.266c0.122 0.017 0.296-0.884 0.296-0.884l0.266 0.972s1.063 0.177 1.89 0.059c0.827-0.118 1.801-0.619 1.801-0.619s-0.325-3.253-0.295-3.832z"></path>
<path fill="#f2f0eb" style="fill: var(--color3, #f2f0eb)" d="M19.559 4.563s-1.856 5.416-2.040 5.474c-0.184 0.058-0.741-2.332-0.747-3.93-0.008-1.598 0.236-1.946 0.236-1.946l2.551 0.403z"></path>
<path fill="#363b4e" style="fill: var(--color9, #363b4e)" d="M17.075 8.291c0.098 1.082 0.461 1.837 0.392 1.9s-0.502-0.796-0.709-1.297c-0.137-0.333-0.416-1.359-0.48-1.834s0.295-0.972 0.295-0.972-0.259-0.367-0.23-0.685c0.029-0.318 0.147-0.888 0.237-1.018 0.156-0.221 0.554-0.31 0.554-0.31s-0.157 3.133-0.059 4.216z"></path>
<path fill="#363b4e" style="fill: var(--color9, #363b4e)" d="M19.508 4.222s0.586 0.008 0.692 0.148c0.105 0.141-0.070 0.897-0.111 1.255s-0.596 0.622-0.596 0.622 0.368 0.606 0.074 1.174c-0.351 0.68-1.862 2.939-2.101 2.77-0.136-0.097 0.72-1.598 1.326-3.485 0.461-1.433 0.716-2.484 0.716-2.484z"></path>
<path fill="#fff" style="fill: var(--color2, #fff)" d="M19.148 3.798s0.307 0.169 0.389 0.312c0.083 0.141 0.022 0.453 0.022 0.453s-0.185 0.531-0.401 0.766c-0.216 0.237-0.758 0.682-0.758 0.682l-0.558-0.952 1.305-1.261z"></path>
<path fill="#fff" style="fill: var(--color2, #fff)" d="M17.511 3.826s-0.333 0.103-0.39 0.227c-0.058 0.125-0.109 0.49-0.109 0.49s0.023 0.361 0.074 0.589c0.057 0.253 0.275 0.779 0.275 0.779l0.522-0.761-0.371-1.325z"></path>
<path fill="#a4273b" style="fill: var(--color11, #a4273b)" d="M17.731 5.048s-0.705-0.568-0.773-0.228c-0.068 0.339-0.112 0.923 0.127 0.926 0.241 0.002 0.546-0.309 0.546-0.309l0.101-0.389zM17.955 5.101s0.795-0.433 0.802-0.087c0.006 0.347-0.055 0.929-0.291 0.888s-0.481-0.401-0.481-0.401l-0.029-0.401z"></path>
<path fill="#bd273b" style="fill: var(--color12, #bd273b)" d="M17.809 5.016c-0.148 0.008-0.232 0.039-0.249 0.184s-0.070 0.353 0.032 0.392c0.103 0.040 0.392 0.075 0.431-0.028s0.029-0.344 0.023-0.413c-0.005-0.067-0.089-0.144-0.237-0.135z"></path>
<path fill="#b77e20" style="fill: var(--color13, #b77e20)" d="M17.704 11.236c-0.001 0.005-0.001 0.010-0.001 0.016 0 0.081 0.066 0.147 0.147 0.147s0.147-0.066 0.147-0.147c0-0 0-0 0-0.001v0c-0-0.081-0.066-0.146-0.147-0.146-0.075 0-0.137 0.057-0.146 0.13l-0 0.001zM17.741 12.691c-0.001 0.005-0.001 0.010-0.001 0.016 0 0.081 0.066 0.147 0.147 0.147s0.147-0.066 0.147-0.147c0-0 0-0.001 0-0.001v0c-0-0.081-0.066-0.146-0.147-0.146-0.075 0-0.137 0.057-0.146 0.13l-0 0.001zM17.756 14.131c-0.001 0.005-0.001 0.010-0.001 0.016 0 0.081 0.066 0.147 0.147 0.147s0.147-0.066 0.147-0.147c0-0 0-0 0-0.001v0c-0-0.081-0.066-0.146-0.147-0.146-0.075 0-0.137 0.057-0.146 0.13l-0 0.001z"></path>
<path fill="#f5aa8a" style="fill: var(--color4, #f5aa8a)" d="M17.368 3.335l1.745-0.438 0.185 1.281s-0.164 0.139-0.438 0.354c-0.274 0.214-0.978 0.597-0.978 0.597l-0.404-0.472c-0.113-0.131-0.242-0.495-0.242-0.495l0.131-0.827z"></path>
<path fill="#f5aa8a" style="fill: var(--color4, #f5aa8a)" d="M17.011 0.71c0.377-0.634 1.356-0.632 1.855-0.339 0.768 0.451 0.845 1.489 0.564 2.395-0.155 0.498-0.392 0.829-0.812 1.059-0.911 0.499-1.488 0.088-1.668-0.206-0.2-0.328-0.284-1.137-0.276-1.447 0.010-0.453-0.037-0.828 0.339-1.462z"></path>
<path fill="#411b00" style="fill: var(--color14, #411b00)" d="M17.285 2.36c-0.004 0.078-0.068 0.14-0.146 0.14-0.002 0-0.005-0-0.007-0h0c-0.076-0.006-0.135-0.070-0.135-0.147 0-0.005 0-0.009 0.001-0.014l-0 0.001c0.007-0.081 0.076-0.143 0.155-0.138s0.138 0.076 0.133 0.158zM18.445 2.451c-0.004 0.078-0.067 0.139-0.146 0.139-0.003 0-0.005-0-0.008-0l0 0c-0.076-0.006-0.134-0.069-0.134-0.146 0-0.004 0-0.009 0.001-0.013l-0 0.001c0.006-0.083 0.075-0.145 0.154-0.139s0.139 0.076 0.133 0.158z"></path>
<path fill="#592221" style="fill: var(--color15, #592221)" d="M18.803 2.035c-0.204-0.136-0.565-0.184-0.754 0-0.017 0.017-0.004 0.051 0.021 0.049 0.081-0.003 0.162 0.008 0.244 0.002 0.026-0.003 0.056-0.006 0.087-0.006 0.12 0 0.232 0.030 0.33 0.084l-0.004-0.002c0.083 0.050 0.152-0.074 0.075-0.126zM16.926 2.027c0.056-0.045 0.185-0.031 0.25-0.025 0.081 0.008 0.189 0.020 0.264 0.048 0.020 0.008 0.042-0.016 0.035-0.035-0.078-0.221-0.496-0.236-0.655-0.092-0.071 0.066 0.032 0.163 0.104 0.104z"></path>
<path fill="#d27d73" style="fill: var(--color16, #d27d73)" d="M17.792 3.194s-0.024-0.002-0.063-0.013c-0.060-0.017-0.112-0.040-0.16-0.071l0.002 0.001c-0.036-0.023-0.067-0.048-0.094-0.076l-0-0c-0.040-0.043-0.071-0.097-0.086-0.157l-0.001-0.003c-0.002-0.015-0.005-0.032-0.005-0.048 0-0.030 0.006-0.063 0.019-0.093 0.025-0.059 0.071-0.094 0.105-0.124s0.067-0.055 0.087-0.079l0.008-0.009-0.003 0.004 0.002-0.003 0.003-0.004 0.003-0.007c0.006-0.011 0.008-0.017 0.010-0.024l0.017-0.053c0.011-0.039 0.017-0.078 0.025-0.115l0.019-0.106 0.029-0.162 0.013-0.061c-0.005 0.044-0.007 0.095-0.007 0.147 0 0.113 0.012 0.222 0.036 0.328l-0.002-0.010c-0.003 0.024-0.005 0.044-0.013 0.072-0.003 0.013-0.008 0.029-0.012 0.037l-0.003 0.008-0.002 0.003v0.002l-0.001 0.001-0.003 0.006-0.011 0.019c-0.030 0.051-0.070 0.083-0.103 0.112s-0.057 0.056-0.068 0.078c-0.006 0.011-0.008 0.022-0.008 0.035v0.017c0 0.008 0.004 0.020 0.006 0.030 0.005 0.024 0.021 0.059 0.040 0.085 0.017 0.029 0.040 0.054 0.061 0.078 0.042 0.047 0.084 0.084 0.115 0.111l0.047 0.042z"></path>
<path fill="#592221" style="fill: var(--color15, #592221)" d="M16.699 1.132c0.028-0.063-0.045-0.391 0.021-0.544s0.407-0.328 0.784-0.461c0.396-0.139 0.85-0.177 1.368-0.051s0.984 0.465 0.979 1.016c-0.003 0.462-0.072 1.233-0.17 1.272 0.149-0.045-0.005 0.015-0.159 0.074l-0.306 0.102s-0.222-0.539-0.157-0.691c0.066-0.153-0.15-0.663-0.25-0.697-0.082 0.003-0.714 0.189-1.103 0.197-0.387 0.008-0.606-0.295-0.609-0.292 0 0-0.126 0.153-0.204 0.286s-0.227 0.52-0.227 0.52-0.081-0.084-0.080-0.293c0.001-0.208 0.054-0.303 0.112-0.439z"></path>
<path fill="#f5aa8a" style="fill: var(--color4, #f5aa8a)" d="M19.432 2.045c0.307-0.107 0.472 0.254 0.352 0.674-0.076 0.264-0.438 0.385-0.591 0.31 0.013-0.269-0.045-0.884 0.239-0.984z"></path>
<path fill="#d3ecfe" style="fill: var(--color17, #d3ecfe)" d="M17.752 2.687c0.877 0.027 1.336-0.149 1.336-0.149s0.167 0.927-0.16 1.206c-0.306 0.26-0.843 0.454-1.346 0.35s-0.68-0.455-0.802-0.73c-0.124-0.275-0.126-0.899-0.126-0.899s0.221 0.195 1.098 0.221z"></path>
<path fill="#b1d7de" style="fill: var(--color18, #b1d7de)" d="M16.776 2.68s0.26 0.202 0.891 0.227c0.664 0.027 1.31-0.199 1.31-0.199l0.018 0.172s-0.88 0.192-1.299 0.158c-0.419-0.034-0.888-0.168-0.888-0.168l-0.031-0.19zM16.851 3.198s0.241 0.149 0.833 0.173c0.623 0.025 1.296-0.195 1.296-0.195l-0.012 0.162s-0.864 0.189-1.257 0.157c-0.393-0.031-0.833-0.157-0.833-0.157l-0.027-0.139zM18.873 3.601c-0.243 0.063-0.688 0.16-1.112 0.142-0.438-0.018-0.682-0.104-0.781-0.147 0.011 0.043 0.024 0.087 0.038 0.13 0.136 0.036 0.467 0.116 0.77 0.141 0.265 0.021 0.743-0.057 1.027-0.11 0.027-0.040 0.044-0.095 0.057-0.155z"></path>
<path fill="#f5aa8a" style="fill: var(--color4, #f5aa8a)" d="M17.68 11.211s-1.040-0.528-1.624-0.233c-0.584 0.295-0.82 0.701-0.869 0.883-0.1 0.367 0.131 0.334 0.131 0.334s-0.047 0.077 0.043 0.166c0.046 0.049 0.102 0.088 0.163 0.117l0.003 0.001s0.017 0.137 0.057 0.164c0.040 0.028 0.077 0.042 0.108 0.040 0.124-0.014 0.812-0.505 1.137-0.604 0.136-0.042 0.282 0.072 0.455 0.109 0.239 0.051 0.518-0.142 0.518-0.142s0.101-0.598-0.123-0.835z"></path>
<path fill="#f2f0eb" style="fill: var(--color3, #f2f0eb)" d="M21.064 4.983c-0.331 0.072-0.749 0.595-0.881 1.541s-0.432 2.771-0.466 2.948c-0.034 0.178-0.472 0.407-0.845 0.634-0.211 0.129-0.941 0.68-0.941 0.68l-0.484 0.185s0.163 0.44 0.233 0.659c0.071 0.22 0.099 0.595 0.099 0.595l0.44-0.114s0.786-0.077 1.216-0.181c0.794-0.19 1.999-0.484 2.227-0.989s0.367-2.659 0.442-3.412c0.076-0.753-0.054-1.834-0.237-2.141s-0.473-0.477-0.804-0.406z"></path>
<path fill="#dcd8da" style="fill: var(--color19, #dcd8da)" d="M18.657 11.724c0 0.001 0 0.001 0 0.002 0 0.061-0.050 0.111-0.111 0.111s-0.11-0.048-0.111-0.109v-0c0-0.001-0-0.001-0-0.002 0-0.061 0.050-0.111 0.111-0.111s0.11 0.048 0.111 0.109v0z"></path>
<path fill="#e9dbda" style="fill: var(--color20, #e9dbda)" d="M18.278 10.758c0.179 0.144 0.652 0.136 0.612 1.227s-0.096 2.95-0.146 3.452c-0.051 0.502-0.161 0.946 0.076 1s0.44-0.155 0.44-0.155 0.182 0.233 0.564 0.197c0.384-0.036 0.438-0.303 0.675-0.307s0.382-0.124 0.526-0.333c0.143-0.21 0.237-1.625 0.223-2.392s-0.226-2.767-0.618-3.232c-0.392-0.465-0.97-0.61-1.103-0.629s-0.238 0.109-0.556 0.275c-0.084 0.044-0.263 0.241-0.263 0.241s-0.323 0.065-0.468 0.215c-0.145 0.15-0.143 0.296 0.037 0.441z"></path>
<path fill="#433431" style="fill: var(--color21, #433431)" d="M1.232 25.29c-0.075 0.825-0.488 2.848-0.6 3.261-0.099 0.362-0.188 0.599 0.188 0.562s0.451-0.112 0.676-0.749c0.225-0.637 0.543-2.289 0.675-3.148 0.15-0.974 0.226-3.597 0.226-3.597h-1.014s-0.076 2.847-0.151 3.672zM5.053 20.568c-0.023 0.779-0.082 2.685-0.141 3.335-0.076 0.825-0.488 2.848-0.601 3.261-0.099 0.363-0.188 0.6 0.188 0.563s0.451-0.113 0.676-0.749c0.225-0.637 0.543-2.289 0.675-3.148 0.118-0.76 0.189-2.52 0.215-3.261h-1.012zM8.054 25.29c-0.075-0.824-0.15-3.672-0.15-3.672h-1.014s0.076 2.622 0.226 3.597c0.132 0.859 0.451 2.51 0.675 3.148s0.301 0.712 0.676 0.749c0.376 0.037 0.286-0.199 0.188-0.563-0.113-0.412-0.525-2.435-0.601-3.259zM10.795 23.904c-0.059-0.65-0.118-2.557-0.141-3.335h-1.012c0.025 0.739 0.097 2.501 0.214 3.259 0.133 0.859 0.451 2.511 0.676 3.149s0.301 0.712 0.675 0.749c0.376 0.037 0.287-0.2 0.188-0.563-0.112-0.413-0.525-2.435-0.6-3.26z"></path>
<path fill="#563e3e" style="fill: var(--color22, #563e3e)" d="M3.71 12.825s-2.291-0.125-2.853 0c-0.404 0.089-1.052 0.249-0.802 1.198s0.702 4.198 0.751 5.547c0.051 1.349 0.051 2.448 0.701 2.598s5.607 0 5.607 0 0.851 0 1.903-0.399c1.051-0.4 1.701-0.65 1.701-0.65s0.651-0.399-0.65-0.549c-1.302-0.15-5.707 0.050-5.707 0.050l-0.651-7.794z"></path>
<path fill="#6e5550" style="fill: var(--color23, #6e5550)" d="M10.068 20.568c-1.302-0.149-5.707 0.051-5.707 0.051l-0.651-7.795s-2.291-0.125-2.853 0c-0.054 0.013-0.113 0.025-0.173 0.042-0.059 0.163-0.067 0.379 0.010 0.67 0.25 0.949 0.701 4.197 0.75 5.545 0.019 0.488 0.051 0.963 0.068 1.336 0.034 0.688 0.019 1.275 0.019 1.275s2.067-0.16 2.403-0.15c1.553 0.047 3.867 0.038 3.867 0.038s0.8 0.1 1.853-0.3l1.2-0.458c-0.066-0.097-0.275-0.195-0.787-0.254z"></path>
<path fill="#f5aa8a" style="fill: var(--color4, #f5aa8a)" d="M7.427 14.284s0.135 0.769 0.194 1.172c0.057 0.404 0.096 1.404 0.096 1.404l0.347 0.077 0.097 0.724s-1.157 0.411-1.542 0.007c-0.386-0.404-0.212-3.518-0.212-3.518l1.021 0.135z"></path>
<path fill="#e49e80" style="fill: var(--color24, #e49e80)" d="M11.405 24.121l0.586 2.217 1.335-0.237-0.488-2.322-1.432 0.342z"></path>
<path fill="#448294" style="fill: var(--color25, #448294)" d="M6.131 17.902s5.29-0.6 5.912 0.587c0.622 1.187 1.246 5.996 1.132 6.168-0.115 0.171-1.745 0.348-1.799 0.163-0.099-0.337-1.024-3.821-1.283-4.16s-2.301 0.22-3.313 0.256c-1.051 0.037-2.569 0.271-2.944-0.33-0.35-0.561-0.318-2.2-0.318-2.2l2.613-0.484z"></path>
<path fill="#f5aa8a" style="fill: var(--color4, #f5aa8a)" d="M8.925 25l0.278 2.279 1.354-0.043-0.168-2.369-1.464 0.133z"></path>
<path fill="#4c96a6" style="fill: var(--color26, #4c96a6)" d="M4.48 18.225s5.138 0.361 5.741 1.384c0.682 1.157 0.52 6.022 0.383 6.175s-1.775 0.053-1.804-0.138c-0.051-0.348-0.579-3.72-0.79-4.094s-1.847-0.225-3.080-0.2c-0.541 0.011-1.485 0.005-1.978-0.154-0.466-0.15-0.904-0.467-1.044-0.783-0.269-0.605-0.015-2.223-0.015-2.223l2.588 0.034z"></path>
<path fill="#fd5103" style="fill: var(--color1, #fd5103)" d="M13.342 25.997s0.931 0.61 1.843 1.152c0.354 0.211 0.678 0.596 0.293 0.905-0.191 0.153-1.225 0.367-1.923 0.052-0.795-0.359-1.478-0.331-1.708-0.6s0.082-1.272 0.082-1.272l1.414-0.237z"></path>
<path fill="#fd5103" style="fill: var(--color1, #fd5103)" d="M13.566 26.91s-0.663-0.291-0.906-0.627l0.906 0.627z"></path>
<path fill="#fd5103" style="fill: var(--color1, #fd5103)" d="M15.507 27.654s-0.188 0.231-0.668 0.285c-0.48 0.055-0.769 0.052-1.192-0.078s-0.654-0.317-1.005-0.397c-0.352-0.080-0.641-0.082-0.801-0.219z"></path>
<path fill="#fd5103" style="fill: var(--color1, #fd5103)" d="M10.602 27.143s0.769 0.804 1.533 1.539c0.297 0.285 0.525 0.734 0.081 0.948-0.221 0.106-1.277 0.080-1.885-0.385-0.693-0.529-1.364-0.657-1.527-0.97s0.369-1.221 0.369-1.221l1.43 0.089z"></path>
<path fill="#8db1cc" style="fill: var(--color27, #8db1cc)" d="M10.621 25.433s-0.335 0.163-0.881 0.137c-0.546-0.026-0.984-0.219-0.984-0.219s-0.152 0.295-0.014 0.493c0.138 0.199 0.466 0.305 1 0.363s0.899-0.093 0.988-0.296c0.088-0.202-0.109-0.477-0.109-0.477z"></path>
<path fill="#88a5bd" style="fill: var(--color28, #88a5bd)" d="M13.185 24.339s-0.292 0.23-0.832 0.32c-0.539 0.088-1.026-0.107-1.026-0.107s-0.069 0.419 0.108 0.584 0.52 0.2 1.054 0.145c0.535-0.055 0.861-0.28 0.904-0.497s-0.209-0.445-0.209-0.445z"></path>
<path fill="#5f6775" style="fill: var(--color29, #5f6775)" d="M2.964 18.931c-0.365 0.191-0.977 0.438-1.171 0.567s-0.28-0.376-0.253-0.632c0.025-0.256 0.102-0.461 0.102-0.461s-0.037-0.699-0.018-0.999c0.020-0.325 0.039-0.64 0.040-0.909 0.003-1.642-0.227-4.115 0.274-4.923s1.76-1.038 3.082-1c1.323 0.039 1.991 0.603 2.145 1.192s0.283 1.41 0.283 1.718c0 0.307 0.179 0.743 0.102 0.845s-0.539 0.154-0.539 0.154-0.174 0.985-0.179 1.256c-0.025 1.256-0.027 2.114-0.027 2.114s-1.145 0.229-1.843 0.387c-0.697 0.158-1.317 0.334-1.997 0.691z"></path>
<path fill="#5f6775" style="fill: var(--color29, #5f6775)" d="M6.754 11.586s0.179 0.641 0.205 1.076c0.025 0.436 0.129 1.487 0.051 1.821z"></path>
<path fill="#5f6775" style="fill: var(--color29, #5f6775)" d="M1.694 18.532s1.309-0.615 2.466-0.819l-2.466 0.819z"></path>
<path fill="#f5aa8a" style="fill: var(--color4, #f5aa8a)" d="M5.581 9.962l0.049 0.669s0.041 0.691-0.565 0.769c-0.606 0.077-1.064-0.818-1.064-0.818l-0.002-1.101 1.583 0.481z"></path>
<path fill="#592c30" style="fill: var(--color30, #592c30)" d="M6.036 7.245s0.545 0.312 0.532 1.059c-0.013 0.747-0.329 0.792-0.584 0.611s-1.035-1.109-1.035-1.109l0.328-0.847 0.76 0.286z"></path>
<path fill="#f5aa8a" style="fill: var(--color4, #f5aa8a)" d="M6.156 7.702c0.307 0.849 0.269 2.545-0.629 2.647s-1.413 0-1.855-1.398c-0.442-1.397 0.351-1.979 0.712-2.050 0.28-0.055 1.465-0.048 1.773 0.801z"></path>
<path fill="#522c31" style="fill: var(--color31, #522c31)" d="M4.647 8.854c0.021 0.050 0.070 0.084 0.126 0.084 0.076 0 0.137-0.061 0.137-0.137 0-0.012-0.002-0.024-0.005-0.035l0 0.001c-0.021-0.050-0.070-0.085-0.127-0.085-0.076 0-0.137 0.061-0.137 0.137 0 0.013 0.002 0.025 0.005 0.037l-0-0.001zM5.829 8.804c0.026 0.076 0.105 0.118 0.177 0.093 0.071-0.024 0.109-0.105 0.083-0.181s-0.105-0.118-0.177-0.093c-0.072 0.024-0.109 0.105-0.083 0.181z"></path>
<path fill="#d27d73" style="fill: var(--color16, #d27d73)" d="M5.379 8.523c0.034 0.070 0.059 0.141 0.082 0.212 0.012 0.035 0.021 0.072 0.031 0.108s0.019 0.072 0.028 0.108l-0.029-0.044c0.034 0.019 0.061 0.039 0.091 0.061 0.046 0.035 0.087 0.073 0.122 0.116l0.001 0.001c0.012 0.017 0.024 0.032 0.034 0.054 0.011 0.019 0.021 0.044 0.022 0.073 0.003 0.029-0.006 0.067-0.024 0.089l-0.014 0.018-0.003 0.004-0.005 0.005h-0.001l-0.002 0.001-0.005 0.004-0.021 0.014-0.043 0.029c-0.015 0.008-0.028 0.019-0.045 0.028l-0.051 0.023c-0.059 0.029-0.128 0.051-0.2 0.063l-0.004 0.001c0.026-0.023 0.053-0.046 0.079-0.067 0.028-0.021 0.051-0.045 0.077-0.065l0.036-0.030c0.013-0.008 0.025-0.024 0.037-0.035l0.036-0.036 0.019-0.018 0.003-0.003v-0.004c0.003-0.001 0.001-0.003 0-0.003 0.002 0 0-0.003-0.001-0.004l-0.004-0.008c0-0.004-0.003-0.008-0.007-0.013-0.004-0.010-0.014-0.021-0.022-0.031-0.010-0.011-0.019-0.022-0.030-0.032-0.022-0.022-0.045-0.042-0.068-0.062l-0.002-0.001c-0.024-0.020-0.051-0.040-0.076-0.059l-0.026-0.022-0.003-0.022c-0.003-0.038-0.008-0.074-0.011-0.112s-0.006-0.074-0.007-0.112c-0.003-0.074-0.002-0.15 0.006-0.227z"></path>
<path fill="#592c30" style="fill: var(--color30, #592c30)" d="M6.198 8.54l0.016-0.002c0.051-0.006 0.066-0.062 0.025-0.093-0.101-0.076-0.339-0.118-0.44-0.029-0.038 0.032-0.003 0.082 0.036 0.087 0.058 0.008 0.118-0.013 0.179-0.008 0.066 0.005 0.124 0.028 0.187 0.042l-0.012-0.092-0.014 0.008c-0.036 0.023-0.025 0.093 0.023 0.087zM5.048 8.427c-0.045-0.059-0.153-0.061-0.221-0.068-0.112-0.012-0.259 0.009-0.347 0.083-0.019 0.015-0.015 0.045 0 0.061l-0.001-0.012c-0.002 0.008 0 0.020 0.009 0.024l0.008 0.004c0.021 0.010 0.042 0.002 0.051-0.020l0.005-0.014-0.042 0.031c0.098 0.005 0.187-0.053 0.286-0.052 0.034 0 0.067 0.005 0.1 0.008l0.088 0.004c0.032 0.025 0.093-0.009 0.063-0.049z"></path>
<path fill="#fff" style="fill: var(--color2, #fff)" d="M5.639 9.586c-0.054 0.019-0.249 0.029-0.291 0.025-0.206-0.024-0.33-0.255-0.421-0.194-0.093 0.063-0.199 0.42 0.132 0.522 0.439 0.136 0.579-0.354 0.579-0.354z"></path>
<path fill="#592c30" style="fill: var(--color30, #592c30)" d="M6.444 7.178c-0.267-0.259-0.484-0.286-0.484-0.286s-0.255-0.449-0.824-0.582c-0.569-0.134-0.877 0.349-0.877 0.349s-0.501-0.132-0.808 0.283c-0.307 0.414-0.149 1.060 0.328 1.159s0.691-0.433 0.691-0.433 0.581 0.227 0.854 0.166c0.273-0.063 0.47-0.304 0.47-0.304s0.217 0.616 0.64 0.509c0.313-0.080 0.278-0.601 0.010-0.861z"></path>
<path fill="#592c30" style="fill: var(--color30, #592c30)" d="M3.507 7.294s-0.528 0.327-0.512 0.762c0.016 0.435 0.297 0.657 0.297 0.657s0.295 0.066 0.404 0.267c0.11 0.201 0.264 0.195 0.364 0.089 0.029-0.030 0.022-0.341 0.022-0.341s0.087-0.201 0.076-0.509c-0.012-0.307-0.077-0.691-0.077-0.691l-0.574-0.236z"></path>
<path fill="#f5aa8a" style="fill: var(--color4, #f5aa8a)" d="M3.853 8.864c-0.071-0.28-0.564-0.415-0.621-0.078s0.221 0.737 0.548 0.772c0.328 0.035 0.145-0.413 0.073-0.694zM10.193 17.459c-0.052-0.235-0.294-0.517-0.497-0.58-0.275-0.084-0.741-0.227-1.018-0.151-0.095 0.026-0.557 0.083-0.726 0.185s-0.025 0.595 0.123 0.745l0.163 0.003c0.233 0.003 0.643 0.059 0.746 0.071 0.179 0.019 0.368 0.184 0.463 0.017s-0.231-0.28-0.116-0.293c0.058-0.007 0.176 0.002 0.275 0.115 0.098 0.109 0.188 0.215 0.253 0.271 0.159 0.139 0.264-0.123 0.264-0.123s0.122-0.030 0.071-0.261z"></path>
<path fill="#6e5550" style="fill: var(--color23, #6e5550)" d="M17.872 29.882c0 0.371-1.187 0.507-2.652 0.507s-2.652-0.135-2.652-0.507c0-0.371 1.187-0.673 2.653-0.673 1.464 0 2.651 0.301 2.651 0.674z"></path>
<path fill="#433431" style="fill: var(--color21, #433431)" d="M14.845 18.017v11.442h0.002c0.008 0.115 0.171 0.208 0.373 0.208s0.365-0.093 0.374-0.208h0.001v-11.442h-0.749z"></path>
<path fill="#957765" style="fill: var(--color32, #957765)" d="M15.22 17.93h-8.596l0.008 0.48c0.004 0.164 0.051 0.268 0.157 0.334 0.082 0.051 0.377 0.131 1.017 0.173 2.016 0.131 6.037 0.056 7.413 0.067 1.377-0.012 5.398 0.064 7.414-0.067 0.64-0.042 0.935-0.122 1.016-0.173 0.108-0.067 0.154-0.17 0.157-0.333l0.008-0.48h-8.596z"></path>
<path fill="#ae8b76" style="fill: var(--color33, #ae8b76)" d="M15.22 17.74c-1.819 0.005-8.596 0.052-8.596 0.19s0.781 0.267 8.596 0.267 8.596-0.128 8.596-0.267c0-0.138-6.776-0.185-8.596-0.19z"></path>
<path fill="#f3f3f3" style="fill: var(--color34, #f3f3f3)" d="M17.539 17.853c0 0.098-0.57 0.177-1.274 0.177s-1.275-0.079-1.275-0.177c0-0.099 0.571-0.179 1.275-0.179s1.274 0.079 1.274 0.178z"></path>
<path fill="#d7d7d7" style="fill: var(--color35, #d7d7d7)" d="M16.265 17.943c0.493 0 0.893-0.051 0.893-0.112s-0.4-0.112-0.893-0.112c-0.493 0-0.893 0.051-0.893 0.112s0.399 0.112 0.893 0.112z"></path>
<path fill="#fbfbfb" style="fill: var(--color36, #fbfbfb)" d="M16.265 16.494c-0.637 0-0.975 0.098-0.975 0.098 0 0.23 0.221 0.852 0.364 0.968s0.333 0.182 0.611 0.182c0.278 0 0.468-0.067 0.611-0.182s0.364-0.738 0.364-0.968c0 0-0.339-0.098-0.975-0.098z"></path>
<path fill="#eee" style="fill: var(--color37, #eee)" d="M15.311 16.616c0 0.036 0.428 0.065 0.954 0.065s0.953-0.029 0.953-0.065c0-0.035-0.427-0.097-0.953-0.097s-0.954 0.061-0.954 0.097z"></path>
<path fill="#fbfbfb" style="fill: var(--color36, #fbfbfb)" d="M16.96 17.538c-0.063 0-0.103-0.009-0.107-0.011l0.021-0.090c0.003 0 0.2 0.047 0.424-0.098 0.135-0.088 0.225-0.216 0.234-0.334 0.005-0.067-0.017-0.125-0.063-0.168-0.131-0.121-0.295 0.014-0.296 0.016l-0.056-0.073c0.077-0.065 0.261-0.151 0.411-0.013 0.067 0.063 0.101 0.152 0.093 0.248-0.012 0.147-0.118 0.302-0.276 0.404-0.108 0.074-0.241 0.118-0.384 0.12h-0z"></path>
<path fill="#eee" style="fill: var(--color37, #eee)" d="M16.265 17.645c-0.517 0-0.789-0.46-0.863-0.566 0.076 0.213 0.174 0.419 0.25 0.48 0.086 0.068 0.139 0.114 0.168 0.139-0.088 0.019-0.142 0.045-0.142 0.074 0 0.062 0.264 0.114 0.588 0.114s0.587-0.051 0.587-0.114c0-0.029-0.053-0.055-0.141-0.074 0.029-0.025 0.081-0.070 0.168-0.139 0.076-0.061 0.174-0.267 0.249-0.48-0.073 0.106-0.345 0.566-0.862 0.566z"></path>
<path fill="#f3f3f3" style="fill: var(--color34, #f3f3f3)" d="M10.271 17.903c0 0.099-0.571 0.178-1.275 0.178s-1.274-0.079-1.274-0.178 0.571-0.178 1.274-0.178c0.704 0 1.275 0.079 1.275 0.178z"></path>
<path fill="#d7d7d7" style="fill: var(--color35, #d7d7d7)" d="M9.89 17.881c0 0.062-0.4 0.112-0.893 0.112s-0.893-0.051-0.893-0.111c0-0.062 0.4-0.112 0.893-0.112s0.893 0.051 0.893 0.111z"></path>
<path fill="#433431" style="fill: var(--color21, #433431)" d="M22.97 23.107c0.022 0.777 0.082 2.685 0.141 3.335 0.075 0.824 0.488 2.847 0.6 3.259 0.099 0.364 0.188 0.6-0.188 0.563s-0.451-0.112-0.675-0.749c-0.226-0.637-0.543-2.288-0.676-3.148-0.117-0.759-0.189-2.52-0.214-3.259h1.012z"></path>
<path fill="#323d67" style="fill: var(--color38, #323d67)" d="M21.139 27.816s0.025 0.224-0.012 0.484c-0.030 0.215-0.13 0.446-0.266 0.699-0.125 0.233-0.333 0.381-0.534 0.733-0.155 0.272 0.017 0.573 0.279 0.665 0.486 0.173 1.275-0.339 1.52-0.804 0.184-0.356 0.46-0.642 0.798-0.833l0.010-0.005c0.259-0.146 0.446-0.564 0.172-0.884-0.109-0.128-0.293-0.295-0.493-0.482-0.237-0.221-0.411-0.419-0.411-0.419l-1.063 0.845z"></path>
<path fill="#dba990" style="fill: var(--color39, #dba990)" d="M21.51 29.023c0.384-0.357 0.587-0.813 0.866-1.124 0.153-0.172 0.261-0.32 0.248-0.5-0.003-0.002-0.006-0.005-0.010-0.008l-0.001-0.001c-0.237-0.221-0.411-0.419-0.411-0.419l-1.063 0.845s0.025 0.224-0.012 0.484c-0.030 0.215-0.13 0.446-0.266 0.699-0.024 0.045-0.051 0.085-0.079 0.126 0.095 0.155 0.408 0.195 0.728-0.103z"></path>
<path fill="#212a3f" style="fill: var(--color40, #212a3f)" d="M18.741 21.459c-0.49 0.005-0.778 0.157-0.856 1.007s1.696 3.833 1.951 4.404c0.256 0.57 0.528 1.202 0.528 1.202s0.671 0.019 1.184-0.274c0.514-0.292 1.018-0.867 1.018-0.867s-1.352-2.708-1.675-3.254c-0.476-0.787-0.81-1.309-1.153-1.826l0.14 0.224s-0.648-0.622-1.138-0.616z"></path>
<path fill="#43528b" style="fill: var(--color41, #43528b)" d="M18.697 28.796s-0.023 0.225-0.113 0.472c-0.074 0.204-0.219 0.41-0.405 0.629-0.171 0.202-0.405 0.303-0.675 0.606-0.208 0.233-0.101 0.563 0.135 0.707 0.44 0.269 1.318-0.067 1.655-0.472 0.246-0.303 0.574-0.53 0.95-0.648l0.014-0.004c0.285-0.089 0.555-0.46 0.352-0.83-0.080-0.147-0.225-0.349-0.382-0.573-0.187-0.266-0.315-0.494-0.315-0.494l-1.216 0.606z"></path>
<path fill="#f5aa8a" style="fill: var(--color4, #f5aa8a)" d="M18.809 30.054c0.451-0.269 0.743-0.674 1.080-0.921 0.185-0.136 0.323-0.259 0.345-0.438l-0.008-0.011c-0.185-0.266-0.314-0.494-0.314-0.494l-1.215 0.606s-0.023 0.225-0.113 0.472c-0.074 0.204-0.219 0.41-0.405 0.629-0.033 0.039-0.067 0.073-0.104 0.106 0.061 0.172 0.358 0.276 0.734 0.051z"></path>
<path fill="#344163" style="fill: var(--color42, #344163)" d="M17.673 22.080c-0.482-0.096-0.794-0.008-1.047 0.808s0.862 4.101 0.994 4.712 0.266 1.285 0.266 1.285 0.653 0.157 1.216-0.023c0.562-0.179 1.176-0.638 1.176-0.638s-0.76-2.929-0.962-3.528c-0.202-0.601-0.659-1.777-0.659-1.777s-0.504-0.744-0.985-0.84z"></path>
<path fill="#433431" style="fill: var(--color21, #433431)" d="M26.79 27.597c0.076 0.824 0.488 2.848 0.6 3.26 0.099 0.364 0.188 0.6-0.188 0.563s-0.45-0.113-0.675-0.749c-0.226-0.637-0.543-2.289-0.676-3.148-0.15-0.974-0.225-3.597-0.225-3.597h1.014s0.075 2.848 0.15 3.672zM19.968 28.174c0.076-0.825 0.15-3.672 0.15-3.672h1.014s-0.076 2.622-0.225 3.596c-0.133 0.859-0.451 2.511-0.676 3.148s-0.301 0.712-0.675 0.749c-0.376 0.038-0.287-0.198-0.188-0.562 0.112-0.413 0.525-2.435 0.6-3.26zM17.227 26.787c0.060-0.65 0.119-2.557 0.141-3.335h1.012c-0.026 0.74-0.098 2.501-0.215 3.26-0.132 0.859-0.451 2.511-0.675 3.148s-0.301 0.712-0.676 0.749c-0.376 0.038-0.286-0.199-0.188-0.562 0.113-0.413 0.525-2.436 0.6-3.261z"></path>
<path fill="#563e3e" style="fill: var(--color22, #563e3e)" d="M26.467 24.608c-0.357 0.248-5.558 0.098-5.558 0.098s-0.851 0-1.903-0.4c-1.051-0.4-1.701-0.649-1.701-0.649s-0.652-0.4 0.65-0.55c1.302-0.15 5.707 0.051 5.707 0.051s1.302 0.143 2.111 0.528c0.808 0.384 1.050 0.674 0.694 0.923z"></path>
<path fill="#344163" style="fill: var(--color42, #344163)" d="M20.531 20.763s-3.702 0.643-3.803 1.991c-0.076 1.013 0.339 0.623 1.148 0.547 0.808-0.077 2.24-0.143 3.162 0.055 0.693 0.148 2.683 0.288 2.809-0.576s-0.126-1.729-0.481-2.017c-0.355-0.288-2.835 0-2.835 0z"></path>
<path fill="#5f6775" style="fill: var(--color29, #5f6775)" d="M25.538 21.676s-0.138-2.072-0.135-2.392c0.008-0.659 0.195-2.292 0.168-3.605-0.035-1.785-0.701-2.179-1.451-2.46s-1.891-0.067-2.397 0.067c-0.507 0.135-1.357 0.914-1.152 2.503s0.128 2.051 0.128 2.872c0 0.82-0.63 2.072-0.495 2.341 0.056 0.112 1.013 1.28 2.329 1.347s3.005-0.674 3.005-0.674z"></path>
<path fill="#f5aa8a" style="fill: var(--color4, #f5aa8a)" d="M17.711 18.398s-0.381-0.68-1.039-0.808c-0.659-0.131-1.224 0.303-1.226 0.354-0.001 0.010-0.087 0.051-0.102 0.147s0.034 0.125 0.034 0.125-0.143 0.059-0.136 0.174c0.006 0.115 0.080 0.139 0.080 0.139s-0.116 0.194 0.015 0.213c0.113 0.017 0.169-0.030 0.286-0.042 0.147-0.013 0.314 0 0.426 0.024 0.2 0.042 0.286 0.292 0.523 0.328 0.384 0.057 0.754 0.065 0.92-0.054s0.22-0.6 0.22-0.6z"></path>
<path fill="#f5aa8a" style="fill: var(--color4, #f5aa8a)" d="M17.669 18.225l-0.272 0.776s1.069 0.249 2.173 0.147c1.105-0.103 1.794-0.212 2.029-0.717s0.478-2.653 0.411-3.461c-0.067-0.808-0.36-1.204-0.797-1.256s-0.771 0.923-0.847 1.64c-0.077 0.717-0.36 2.102-0.36 2.102s-0.925 0.256-1.284 0.359c-0.36 0.103-1.053 0.41-1.053 0.41zM21.981 11.985l-0.126 1.293s0.386 0.179 0.925 0.128c0.539-0.051 0.796-0.359 0.796-0.359l-0.266-1.142-1.329 0.080z"></path>
<path fill="#f5aa8a" style="fill: var(--color4, #f5aa8a)" d="M20.899 10.904c0.056-0.132 0.078-0.625 0.116-0.811 0.239-1.18 1.499-1.305 2.222-0.968s0.923 1.872 0.644 2.339c-0.278 0.468-1.011 0.804-1.337 0.935s-0.808 0.386-1.318 0.157c-0.272-0.122-0.31-0.829-0.349-0.867-0.086-0.085-0.26-0.189-0.235-0.335 0.115-0.189 0.202-0.318 0.257-0.451z"></path>
<path fill="#481609" style="fill: var(--color43, #481609)" d="M21.314 10.813c-0.020-0.047-0.065-0.079-0.118-0.079-0.023 0-0.044 0.006-0.063 0.016l0.001-0c-0.047 0.029-0.077 0.079-0.077 0.137 0 0.022 0.005 0.044 0.013 0.063l-0-0.001c0.020 0.046 0.065 0.078 0.118 0.078 0.023 0 0.044-0.006 0.062-0.016l-0.001 0c0.067-0.037 0.097-0.126 0.066-0.198z"></path>
<path fill="#954331" style="fill: var(--color44, #954331)" d="M21.46 10.644c0.013 0 0.022-0.004 0.030-0.013 0.010-0.008 0.013-0.024 0.010-0.035-0.003-0.008-0.010-0.014-0.013-0.023 0.012 0.037 0.003-0.001-0.010-0.016-0.024-0.029-0.069-0.043-0.103-0.056-0.060-0.024-0.129-0.038-0.202-0.038-0.045 0-0.088 0.005-0.13 0.015l0.004-0.001c-0.081 0.021-0.046 0.147 0.034 0.124 0.032-0.008 0.070-0.013 0.108-0.013 0.050 0 0.097 0.008 0.142 0.022l-0.003-0.001c0.029 0.008 0.059 0.018 0.089 0.025l0.025 0.004c0.007 0.002 0.013 0.001 0.019-0.001 0.022-0.008 0.014-0.009-0.023-0.007l-0.009-0.035v0.002l0.025-0.025h-0.003c-0.037 0.016-0.033 0.067 0.009 0.071z"></path>
<path fill="#954331" style="fill: var(--color44, #954331)" d="M24.707 12.893c-0.18-0.359-0.179-0.947-0.126-1.726 0.005-0.060 0.008-0.129 0.008-0.199 0-0.326-0.065-0.637-0.182-0.921l0.006 0.016c-0.097-0.735-0.663-1.044-0.994-1.198-0.345-0.16-1.065-0.362-1.943 0.179-0.369 0.227-0.553 0.653-0.452 0.963s0.438 0.392 0.702 0.734c0.264 0.344 0.046 0.598 0.36 0.898 0.050 0.047 0.1 0.101 0.152 0.157-0.017 0.101-0.061 0.307-0.177 0.458-0.159 0.208-0.122 0.552-0.042 0.838 0.078 0.286 0.237 0.623 0.184 0.857s-0.348 0.741-0.117 1.202c0.232 0.461 0.591 0.77 1.053 0.589 0.463-0.179 0.771-0.409 1.182-0.487s0.923-0.296 1.002-0.795c0.077-0.498-0.438-1.204-0.617-1.563z"></path>
<path fill="#f5aa8a" style="fill: var(--color4, #f5aa8a)" d="M21.88 11.25s0.131-0.536 0.49-0.227c0.36 0.307-0.051 0.821-0.356 0.805s-0.135-0.578-0.135-0.578z"></path>
<path fill="#fff" style="fill: var(--color2, #fff)" d="M20.931 11.893s0.195-0.019 0.333-0.077c0.159-0.067 0.268-0.171 0.308-0.103 0.077 0.128 0.077 0.487-0.36 0.487-0.284 0-0.282-0.307-0.282-0.307z"></path>
<path fill="#563e3e" style="fill: var(--color22, #563e3e)" d="M26.543 24.608c0.651-0.15 0.622-1.152 0.672-2.501s0.501-4.596 0.751-5.545-0.396-1.109-0.801-1.199c-0.368-0.082-2.394 0.056-2.741 0.093s-0.991 0.192-1.194 0.385c-0.267 0.253-0.232 3.384-0.232 3.384l-0.385 4.768s0 0.692 1.347 0.654c1.349-0.039 2.582-0.039 2.582-0.039zM21.92 24.116c0.011 0 0.011-0.017 0-0.017s-0.010 0.017 0 0.017z"></path>
<path fill="#6e5550" style="fill: var(--color23, #6e5550)" d="M22.627 23.818c0.18 0.013 0.36 0.029 0.539 0.045l0.372-4.6s-0.035-3.132 0.231-3.384c0.204-0.194 0.848-0.346 1.194-0.385 0.267-0.029 1.524-0.117 2.259-0.119l-0.057-0.013c-0.368-0.082-2.394 0.056-2.741 0.093s-0.991 0.192-1.194 0.385c-0.267 0.253-0.232 3.384-0.232 3.384l-0.371 4.594z"></path>
<path fill="#fbfbfb" style="fill: var(--color36, #fbfbfb)" d="M8.557 16.392c0.637 0 0.975 0.099 0.975 0.099 0 0.229-0.221 0.852-0.364 0.967s-0.333 0.182-0.611 0.182c-0.278 0-0.468-0.067-0.611-0.182s-0.364-0.738-0.364-0.967c0 0 0.339-0.099 0.975-0.099z"></path>
<path fill="#eee" style="fill: var(--color37, #eee)" d="M9.511 16.514c0 0.036-0.428 0.065-0.954 0.065s-0.953-0.029-0.953-0.065c0-0.035 0.427-0.097 0.953-0.097s0.954 0.061 0.954 0.098z"></path>
<path fill="#fbfbfb" style="fill: var(--color36, #fbfbfb)" d="M7.862 17.435c0.063 0 0.103-0.009 0.106-0.010l-0.021-0.091c-0.002 0-0.2 0.047-0.424-0.098-0.135-0.088-0.225-0.216-0.234-0.334-0.005-0.067 0.017-0.125 0.063-0.168 0.131-0.12 0.295 0.014 0.296 0.016l0.056-0.073c-0.077-0.065-0.261-0.151-0.411-0.013-0.067 0.063-0.101 0.15-0.093 0.247 0.012 0.147 0.118 0.302 0.276 0.405 0.108 0.073 0.241 0.118 0.384 0.12h0z"></path>
<path fill="#eee" style="fill: var(--color37, #eee)" d="M8.557 17.543c0.517 0 0.789-0.46 0.863-0.566-0.076 0.213-0.174 0.419-0.25 0.48-0.066 0.052-0.12 0.098-0.174 0.144l0.006-0.005c0.088 0.020 0.142 0.045 0.142 0.074 0 0.062-0.264 0.114-0.588 0.114s-0.588-0.051-0.588-0.114c0-0.029 0.054-0.055 0.143-0.074-0.029-0.025-0.083-0.070-0.168-0.139-0.076-0.061-0.174-0.267-0.249-0.48 0.073 0.107 0.345 0.566 0.862 0.566z"></path>
<path fill="#f5aa8a" style="fill: var(--color4, #f5aa8a)" d="M3.376 15.929l0.005-2.044-1.703 0.125s-0.037 2.521 0.516 2.983c0 0 0.483-0.037 0.828-0.303s0.354-0.76 0.354-0.76z"></path>
<path fill="#f5aa8a" style="fill: var(--color4, #f5aa8a)" d="M2.225 17.025c0.64 0.493 3.762 0.68 3.762 0.68l0.128-0.916s-1.851-1.063-2.287-1.236c-0.435-0.174-0.812-0.162-0.812-0.162s-0.489 0.124-0.669 0.399c-0.179 0.276-0.515 0.931-0.121 1.235z"></path>
<path fill="#f5aa8a" style="fill: var(--color4, #f5aa8a)" d="M7.832 17.581c0.014-0.141-0.108-0.102-0.327-0.093l0.051-0.011s0.345-0.021 0.354-0.243c0.010-0.273-0.235-0.121-0.501-0.093-0.017 0.002-0.035 0.003-0.054 0.003 0.056-0.008 0.109-0.017 0.155-0.027 0.261-0.056 0.36-0.171 0.328-0.252-0.091-0.243-0.209-0.112-0.476-0.084-0.108 0.012-0.257-0.012-0.396-0.045 0.036-0.027 0.081-0.043 0.131-0.043 0.012 0 0.024 0.001 0.036 0.003l-0.001-0c0.236 0.039 0.422-0.134 0.345-0.232s-0.474-0.255-0.845-0.115c-0.371 0.139-0.755 0.093-0.94 0.435-0.16 0.296-0.193 0.6-0.043 0.857 0.109 0.187 0.591 0.333 0.904 0.338 0.179 0.035 0.386 0.071 0.562 0.065 0.275-0.010 0.403-0.029 0.457-0.11s0.013-0.112-0.061-0.142h0.004c0.141-0.017 0.303-0.069 0.317-0.211z"></path>
<path fill="#5f6775" style="fill: var(--color29, #5f6775)" d="M3.594 12.063s0.177 2.384 0.008 2.66c-0.17 0.276-2.031 0.4-2.232 0.202s0.043-0.396-0.026-1.194c-0.082-0.936 0.234-2.002 0.71-2.351 0.93-0.684 1.564 0.003 1.541 0.682z"></path>
<path fill="#5f6775" style="fill: var(--color29, #5f6775)" d="M3.555 11.9s0.214 0.25 0.121 0.768c-0.093 0.518-0.245 1.030-0.221 1.301s0.174 0.618 0.098 0.755c-0.083 0.147-0.257 0.147-0.257 0.147z"></path>
<path fill="#5f6775" style="fill: var(--color29, #5f6775)" d="M3.21 14.168s-0.874-0.259-1.425-0.29l1.425 0.29z"></path>
</symbol>
<symbol id="icon-arrowdown" viewBox="0 0 52 32">
<path d="M27.753 28.887l23.185-24.32c0.369-0.39 0.596-0.918 0.596-1.498s-0.227-1.108-0.597-1.499l0.001 0.001-0.029-0.029c-0.366-0.385-0.883-0.624-1.455-0.624s-1.088 0.239-1.454 0.623l-0.001 0.001-21.818 22.895-21.818-22.895c-0.366-0.385-0.883-0.624-1.455-0.624s-1.088 0.239-1.454 0.623l-0.001 0.001c-0.377 0.392-0.61 0.925-0.61 1.513s0.232 1.121 0.61 1.513l-0.001-0.001 23.156 24.32c0.397 0.412 0.954 0.668 1.571 0.668s1.173-0.256 1.57-0.667l0.001-0.001z"></path>
</symbol>
<symbol id="icon-menu-burger" viewBox="0 0 56 32">
<path d="M1.882 0.941h52.706c1.040 0 1.882 0.843 1.882 1.882s-0.843 1.882-1.882 1.882h-52.706c-1.040 0-1.882-0.843-1.882-1.882s0.843-1.882 1.882-1.882z"></path>
<path d="M1.882 14.118h52.706c1.040 0 1.882 0.843 1.882 1.882s-0.843 1.882-1.882 1.882h-52.706c-1.040 0-1.882-0.843-1.882-1.882s0.843-1.882 1.882-1.882z"></path>
<path d="M1.882 27.294h52.706c1.040 0 1.882 0.843 1.882 1.882s-0.843 1.882-1.882 1.882h-52.706c-1.040 0-1.882-0.843-1.882-1.882s0.843-1.882 1.882-1.882z"></path>
</symbol>
</defs>
</svg>
